<svg width="251" height="222" fill="none" xmlns="http://www.w3.org/2000/svg"><path fill-rule="evenodd" clip-rule="evenodd" d="M195.213 1.03C194.157.053 194.021 0 192.287 0c-1.138.027-2.167.19-2.655.46-.434.217-1.165.786-1.626 1.22l-.813.785c-2.086-.704-3.305-.894-4.064-.867-.731.027-1.869.298-2.492.57-.651.297-1.707 1.083-2.385 1.76-.731.731-1.327 1.625-1.49 2.248-.135.542-.271 1.354-.271 1.815 0 .46.217 1.598.488 2.573.271.976.921 2.33 1.436 3.034.515.677 1.219 1.436 1.599 1.653.379.216 1.219.623 1.896.866.705.244 2.628.515 4.606.623 2.303.136 3.604.353 4.064.623.38.244.732.732.813 1.111.136.65.108.65-.677.352-.434-.19-1.788-.487-2.981-.677-1.761-.298-2.546-.298-4.199-.027-1.111.19-2.574.515-3.251.731-.678.19-1.978.867-2.9 1.463-.948.596-2.14 1.544-2.655 2.113-.542.542-1.084 1.436-1.219 1.95-.163.515-.271 1.436-.271 2.032 0 .596.244 1.436.515 1.896.271.46.84 1.084 1.273 1.409l.786.569c-1.68.027-2.438.216-2.764.46-.352.217-.785.406-.948.406-.19 0-.65.244-1.029.542-.38.298-.84.542-1.003.542-.19 0-.731.46-1.219 1.03-.461.541-1.165 1.49-1.517 2.085-.38.596-.84 1.815-1.057 2.709-.19.894-.569 1.815-.84 2.031-.244.217-.461.57-.461.759 0 .162-.027.515-.054.731-.054.217-.704.976-1.463 1.707-.759.704-3.332 3.223-5.744 5.607-2.411 2.384-5.121 4.849-6.015 5.445-.894.596-3.441 1.977-5.689 3.06a333.657 333.657 0 0 1-5.148 2.466c-.596.27-1.382.596-1.761.677-.38.108-.786.298-.949.433-.135.109-1.056.38-2.032.623-.975.217-2.926.488-4.335.596-1.409.109-2.872.217-3.251.244-.265.038-1.179.063-2.288.093-.478.012-.991.026-1.505.043-2.926.027-3.143 0-3.523-.542-.352-.542-.569-.596-2.032-.46-1.138.08-2.574.541-4.741 1.49-1.707.73-4.037 1.76-5.148 2.302-1.842.84-2.276.948-4.525.975-1.436 0-2.574-.081-2.655-.244-.081-.162-.379-.27-.677-.27-.298 0-1.924-.705-3.577-1.545-2.6-1.327-3.413-1.896-5.391-3.873-1.707-1.68-2.601-2.845-3.306-4.253-.569-1.084-1.084-2.52-1.192-3.197-.162-.92-.135-1.219.136-1.219.162 0 .325.244.325.542 0 .298.406 1.11.92 1.842.516.704 1.437 1.598 2.033 2.032.623.406 1.192.731 1.328.731.108-.027.325.136.487.325.19.19.678.46 1.084.569.434.135 1.707.38 2.818.569 1.815.298 2.222.298 3.874-.163 1.003-.27 1.816-.433 1.816-.352 0 .081.568-.135 1.3-.46.704-.298 1.951-1.03 2.764-1.571.812-.57 1.571-1.3 1.679-1.653.109-.352.217-.84.217-1.056 0-.217-.325-.786-.731-1.273-.596-.705-.976-.867-1.761-.894-.569 0-1.084.108-1.166.27-.081.163-.948.57-1.95.949-1.328.487-2.439.677-4.01.704-1.41.027-2.628-.135-3.522-.433-.732-.271-1.789-.678-2.303-.921a34.29 34.29 0 0 1-1.572-.867c-.325-.217-.596-.542-.596-.705 0-.19-.162-.84-.325-1.435-.217-.677-.542-1.11-.894-1.192-.298-.081-2.249-.136-4.335-.163-2.087 0-4.552-.135-5.473-.27-.948-.163-1.816-.217-1.978-.136-.136.081-.623.027-1.084-.135-.433-.163-.731-.353-.65-.46.081-.136 1.463-.488 3.061-.786l.337-.07c1.49-.308 3.125-.646 3.755-.797l.821-.196a421.56 421.56 0 0 0 3.026-.725c2.14-.515 2.682-.732 2.926-1.22.136-.351.271-.812.271-1.029 0-.216-.325-.487-.731-.595-.434-.136-1.49-.217-2.385-.19-.894 0-2.79.162-4.2.352-1.408.19-3.305.515-4.199.704-.894.217-2.71.46-4.064.542-1.328.081-2.98.325-3.658.569-.677.244-1.544.813-1.95 1.273-.407.488-.732 1.192-.759 1.625 0 .407.163 1.057.38 1.49.189.407.84 1.138 1.408 1.598a58.06 58.06 0 0 1 1.545 1.3c.243.217 1.002.515 1.68.678.677.162 1.544.433 1.977.65.407.19 2.005.46 3.577.569 1.571.108 3.17.244 3.603.298.407.054 1.03.108 1.41.108.65 0 .676.108.785 1.707.081.92.27 2.302.433 3.033.163.759.542 1.842.813 2.438a31.44 31.44 0 0 0 1.165 2.086c.325.542 1.03 1.544 1.544 2.222.515.677 1.138 1.3 1.355 1.381.217.081.867.569 1.436 1.084l1.003.948c-1.138 2.194-1.951 3.467-2.547 4.198a31.242 31.242 0 0 1-2.06 2.33 56.564 56.564 0 0 0-2.031 2.167c-.623.65-1.761 1.76-2.574 2.492-.813.704-2.032 1.544-2.71 1.896-1.056.515-1.734.596-5.148.677-2.33.055-5.554-.08-7.911-.325-2.222-.243-4.47-.623-5.012-.84-.57-.243-1.328-.406-1.707-.406-.38 0-1.22-.216-1.897-.46-.677-.217-2.547-.732-4.2-1.084-1.625-.379-3.576-.731-4.335-.812-.731-.082-1.463-.217-1.625-.353-.136-.108-.921-.406-1.68-.65-.786-.243-1.49-.541-1.572-.704-.08-.163-.325-.27-.541-.27-.217 0-.623-.218-.867-.488-.271-.271-1.22-.705-2.114-.976-.894-.27-1.87-.596-2.167-.704-.38-.162-.786-.054-1.41.433-.487.353-.893.894-.893 1.192 0 .298-.46.975-1.003 1.517-.569.542-1.03 1.057-1.03 1.165 0 .108-.216.677-.46 1.246-.244.596-.758 2.546-1.138 4.334-.38 1.788-.894 4.524-1.138 6.095-.244 1.571-.542 3.061-.677 3.332-.136.244-.407.46-.57.46-.189 0-1.327.46-2.519 1.057-.776.37-1.643.775-2.296 1.08-.35.163-.64.297-.82.383-.514.216-1.87.731-2.98 1.083-1.11.38-2.872.894-3.929 1.165-1.3.352-2.763.515-4.741.487-1.572 0-3.062-.108-3.306-.27-.379-.19-.027-.46 1.761-1.382 1.22-.623 3.333-1.544 4.66-2.059l1.207-.457c1.141-.43 2.38-.9 3.129-1.195a26.74 26.74 0 0 0 3.251-1.463c1.11-.596 1.382-.894 1.436-1.544.054-.433-.054-1.137-.19-1.544-.27-.677-.406-.758-1.3-.65-.57.054-2.547.542-4.416 1.084-.74.225-1.48.445-2.131.64-.997.298-1.79.535-2.07.633-.433.135-1.38.244-2.085.244-.732 0-1.572-.109-1.897-.244-.352-.136-.975-.352-1.436-.434l-.813-.19c1.03-.703 1.761-1.056 2.276-1.245a41.03 41.03 0 0 1 2.466-.759c.813-.216 3.387-.758 5.69-1.192 2.302-.433 4.362-.975 4.551-1.137.19-.19.353-.759.325-1.22 0-.487.136-1.137.271-1.435.244-.46.163-.596-.596-.867-.65-.216-1.571-.244-3.332-.054-1.328.135-3.766.217-5.42.217-1.625-.027-4.388-.244-6.095-.515-1.707-.244-3.414-.596-3.793-.785l-.678-.353a19.95 19.95 0 0 1 4.2-1.381c1.273-.298 3.414-.677 4.741-.867 1.355-.162 3.658-.515 5.148-.758 1.761-.271 4.877-.434 8.941-.488 4.2-.054 6.259-.162 6.313-.352.027-.163.244-.244.46-.163.272.082.407-.027.407-.325 0-.27-.108-.623-.217-.812-.108-.163-.731-.57-1.408-.867-.678-.298-1.49-.569-1.816-.569-.352 0-.84-.108-1.084-.244-.27-.135-1.409-.352-2.52-.46-1.11-.136-3.386-.244-5.066-.244-2.466 0-3.062-.081-3.143-.406-.054-.217-.027-2.357.081-4.74.163-3.576.299-4.606.813-5.825.325-.813.949-1.977 1.355-2.573.406-.596 2.06-2.303 3.658-3.793 1.625-1.49 3.25-3.196 3.684-3.792.407-.596 1.111-2.004 1.545-3.115.46-1.11 1.084-3.305 1.409-4.876.325-1.571.623-3.82.677-5.011.054-1.192-.027-2.899-.163-3.792-.135-.894-.569-2.601-.948-3.793-.406-1.192-1.192-2.953-1.76-3.928-.57-.975-1.356-2.085-1.735-2.492-.38-.433-1.382-1.137-2.222-1.598-1.273-.65-1.87-.813-3.061-.758-.813.027-2.222.27-3.116.568-.894.298-2.06.786-2.574 1.111-.515.325-1.49 1.084-2.14 1.68-.65.596-1.626 1.76-2.168 2.573-.569.813-1.328 2.221-1.707 3.115-.38.894-.921 2.546-1.246 3.657-.298 1.11-.678 2.898-.813 3.928a113.67 113.67 0 0 0-.46 3.115c-.082.677-.163 2.98-.163 5.147 0 2.167.108 4.794.27 5.824.136 1.029.543 2.627.895 3.494.46 1.165 1.138 2.14 2.52 3.576 1.436 1.517 2.086 1.977 2.655 2.004.433 0 .84-.19 1.002-.46.19-.38.082-.65-.433-1.165-.407-.38-1.057-1.165-1.463-1.761-.407-.596-1.057-1.977-1.463-3.034-.461-1.273-.759-2.817-.867-4.334-.109-1.327-.027-3.955.135-5.905.19-1.95.515-4.497.732-5.689.216-1.192.731-3.196 1.11-4.47.38-1.272 1.03-2.979 1.436-3.791.407-.813 1.328-2.086 2.06-2.845.731-.731 1.95-1.652 2.682-2.031.975-.488 1.815-.65 3.034-.678 1.49 0 1.762.082 2.52.813.46.46 1.165 1.49 1.599 2.302.433.813 1.002 2.113 1.246 2.845.244.758.569 1.977.704 2.709.163.758.271 2.383.271 3.657 0 1.273-.243 3.63-.541 5.282-.271 1.652-.786 3.71-1.138 4.605-.353.894-1.165 2.302-1.843 3.115a53.327 53.327 0 0 1-2.763 3.115c-.867.894-1.762 1.869-2.005 2.167-.38.488-.407.298-.244-2.573.108-1.707.27-3.332.406-3.576.136-.27.434-.488.65-.488.217 0 .624-.243.895-.541.243-.298.623-.542.812-.542.163 0 .461-.271.65-.596.163-.352.543-.867.814-1.165.27-.298.758-1.219 1.056-2.032.298-.812.65-2.356.786-3.386.135-1.029.27-2.22.27-2.627 0-.433-.189-.948-.406-1.165-.216-.217-.569-.352-.731-.27-.19.053-.488.46-.678.866-.19.406-.46 1.544-.65 2.52-.162.974-.542 2.383-.84 3.114-.27.759-.84 1.815-1.246 2.384-.515.732-.786.921-.921.677-.108-.19.027-1.462.325-2.79.27-1.327.677-2.98.921-3.657s.434-1.408.434-1.625c-.027-.217-.217-.542-.488-.731-.244-.19-.677-.352-.921-.352-.271 0-.921.46-1.463 1.029l-1.03 1.002c.325-3.359.705-5.472 1.084-6.826.352-1.382.65-2.817.65-3.196 0-.542-.135-.678-.677-.678s-.813.271-1.328 1.3c-.352.705-.84 2.086-1.084 3.116-.243 1.002-.433 2.465-.433 3.25 0 .759.135 1.842.298 2.357.19.515.488 1.138.704 1.354.244.271.325.732.244 1.355-.081.514-.406 2.465-.731 4.334-.325 1.869-.623 3.657-.678 4.009-.054.325-.19.596-.298.596-.135 0-.515-.921-.894-2.086a96.492 96.492 0 0 1-.731-2.52 50.81 50.81 0 0 1-.163-1.489c-.054-.596-.19-1.246-.298-1.409-.081-.19-.38-.352-.623-.352-.271.028-.623.217-.813.488-.19.244-.352 1.03-.352 1.76 0 .705.19 2.168.433 3.251.244 1.057.732 2.52 1.084 3.25.352.705 1.03 1.68 1.49 2.168l.84.867c-.27 4.198-.352 7.368-.325 9.751 0 2.384.136 5.174.271 6.23.136 1.057.163 1.951.081 2.032-.054.082-1.354.244-2.872.352a121.2 121.2 0 0 0-3.576.298c-.355.023-1.2.118-2.031.21l-.543.061c-.975.109-2.52.434-3.441.732-.948.27-2.384.948-3.197 1.463-.813.514-1.68 1.218-1.87 1.57-.216.326-.514 1.138-.677 1.816-.19.893-.19 1.49.054 2.22.19.543.705 1.355 1.138 1.816.46.46.894.84 1.03.84.108 0 .65.297 1.219.676.542.38 1.246.678 1.544.678.298.027.84.19 1.22.379l.677.352c-1.463.867-1.978 1.382-2.086 1.734-.109.352-.217.92-.217 1.273 0 .325.244.975.542 1.409.298.433.731.812.948.812.217 0 .623.217.894.515.244.27.894.623 1.41.785.514.163 1.11.488 1.3.705.162.243.27.541.19.704-.082.163-.299.27-.461.27-.19-.026-1.03.434-1.843 1.003-.812.542-1.707 1.246-1.95 1.544-.271.325-.57.813-.65 1.11-.082.299.026.976.27 1.49.271.515.84 1.192 1.328 1.518.488.297 1.653.758 2.628 1.002.975.244 3.224.514 5.012.596 1.87.108 3.82.054 4.606-.136.385-.068.916-.172 1.463-.278.531-.104 1.077-.21 1.518-.291.894-.162 2.005-.433 2.438-.65.46-.216 1.816-.677 3.062-1.056l2.221-.704c2.06 2.844 3.279 4.225 4.038 4.957.758.704 1.435 1.273 1.517 1.273.081 0 1.355.785 2.845 1.761 1.49.975 2.872 1.76 3.061 1.76.163 0 .759.298 1.274.678.515.379 1.138.677 1.354.677.217 0 1.084.379 1.897.812.813.461 1.815.813 2.249.813.406 0 .786.108.867.271.081.162.542.352 1.03.433.46.109 1.164.325 1.544.515.38.217 1.3.569 2.032.813.759.216 1.653.46 2.032.514.38.054 1.409.244 2.303.434.894.162 2.411.433 3.387.596.975.162 3.847.298 6.367.298 2.547 0 4.985-.027 5.419-.055.46-.027 2.33-.298 4.2-.596 1.869-.297 4.172-.704 5.147-.921.975-.216 2.737-.46 3.929-.541 1.192-.109 2.953-.352 3.928-.569.976-.244 1.897-.515 2.032-.623.163-.136 1.192-.434 2.303-.704 1.111-.271 2.33-.623 2.683-.786.542-.271.704-.19 1.273.515.352.433.65.894.65 1.029 0 .108.353.759.786 1.463.786 1.273.786 1.327.406 2.519-.243.677-.704 2.248-1.03 3.521-.351 1.274-.622 2.493-.622 2.709 0 .217-.136 1.057-.298 1.842-.19.759-.434 3.034-.596 4.984-.136 1.978-.271 5.364-.298 7.531 0 2.167.108 5.58.27 7.585.163 2.004.407 4.686.542 5.959.055.424.118.929.184 1.459.132 1.06.277 2.216.385 3.011.123.901.262 1.849.345 2.421l.062.423c.036.253.156.903.297 1.661l.218 1.183c.149.821.324 1.718.445 2.339l.124.641c.067.27.187.823.32 1.437a220.202 220.202 0 0 0 .504 2.263c.124.544.226.995.259 1.176.082.298.271.975.461 1.489.162.515.325 1.192.352 1.49.054.298.352 1.463.678 2.574a99.2 99.2 0 0 0 1.137 3.386c.298.731 1.707 3.657 3.116 6.501 1.409 2.844 2.655 5.336 2.791 5.553.108.217.352.704.515 1.083.162.38.65 1.301 1.111 2.032.433.759 1.436 2.573 2.194 4.063.759 1.49 1.599 2.926 1.843 3.17.243.298.352.65.243.894-.135.216-.623.487-1.083.568-.488.082-1.436.325-2.114.542-.22.071-.51.161-.834.263-.67.21-1.488.466-2.146.685-.975.298-3.143 1.219-4.796 2.032-1.679.812-3.305 1.463-3.603 1.463-.298 0-.569.081-.596.216-.054.109-.813.678-1.707 1.246-.894.596-2.06 1.355-2.574 1.68-.515.352-1.355 1.138-1.843 1.788-.487.65-1.056 1.842-1.3 2.654-.406 1.49-.406 1.49.433 3.197.434.921 1.139 1.977 1.572 2.356.406.352 1.463 1.03 2.357 1.463 1.3.65 2.086.84 3.929.948 1.707.109 2.872 0 4.47-.379 1.192-.271 3.279-.813 4.606-1.165 1.355-.352 2.628-.731 2.845-.867.217-.135.786-.325 1.219-.433a98.58 98.58 0 0 0 2.981-.759c1.192-.298 3.332-.758 4.741-.975 1.409-.244 3.495-.433 4.606-.406 1.111.027 2.33.081 2.71.108.379.055 2.086.244 3.793.407 1.707.189 3.657.433 4.335.568.677.163 2.98.326 5.148.38 2.384.081 5.093 0 6.909-.244 1.652-.19 4.497-.433 6.367-.542 1.869-.108 4.064-.352 4.877-.542.813-.189 1.978-.596 2.574-.894.596-.325 1.327-.839 1.625-1.137.298-.325.678-1.165.813-1.842.19-.786.19-1.869.054-2.763-.108-.813-.46-1.978-.731-2.574-.298-.596-.542-1.273-.542-1.489 0-.217-.759-1.165-1.626-2.086-1.029-1.084-1.842-1.707-2.221-1.707-.353-.027-.813.163-1.03.407-.217.216-.759.487-1.219.568l-.105.02c-.42.079-.944.176-1.169.251-.271.054-.542.352-.623.65-.081.298 0 1.057.163 1.68.162.65.515 1.544.758 2.032.244.487.38.921.298 1.002-.081.081-.894.189-1.815.271-.948.108-1.788.216-1.897.271-.135.054-1.679.243-3.468.433-1.788.162-4.606.298-6.231.298-1.626-.027-3.902-.081-5.013-.163-1.11-.081-2.763-.189-3.657-.243-.894-.055-1.788-.163-1.951-.271-.19-.082-1.003-.217-1.761-.298-.786-.082-2.52-.136-3.875-.163-1.327-.027-3.278.054-4.335.163-1.029.108-2.628.379-3.522.596-.894.243-2.357.569-3.251.758-.894.19-3.143.867-5.013 1.49-1.869.623-3.793 1.3-4.253 1.517-.488.217-1.138.379-1.436.379-.298 0-.867.163-1.274.379-.433.19-1.544.461-2.519.569-1.301.136-1.924.081-2.385-.189-.325-.19-.596-.488-.596-.623 0-.136.434-.678.948-1.138.515-.488 1.03-.894 1.165-.894.109.027.542-.271.976-.596.433-.352 1.598-1.083 2.574-1.625.975-.569 2.303-1.273 2.953-1.571.623-.298 1.192-.678 1.273-.813.082-.135.651-.406 1.301-.569a16.752 16.752 0 0 0 2.493-.921c.758-.352 2.086-.867 2.98-1.192a113.99 113.99 0 0 1 3.522-1.083c1.409-.407 1.978-.705 2.195-1.165.271-.515.542-.623 1.761-.677.813-.027 2.33-.163 3.36-.298 1.056-.136 3.739-.271 5.96-.298 2.249-.027 4.498-.109 5.013-.163.515-.081 2.221-.271 3.793-.406l1.23-.126c1.343-.137 2.806-.286 3.647-.389 1.111-.135 2.33-.325 2.709-.433.38-.108 2.385-.217 4.444-.244 2.248 0 3.82-.135 3.847-.298.054-.135.244-.487.434-.758.325-.434.433-.461 1.11-.136.705.298.813.298 1.03-.108.135-.271.488-.704.786-.948.298-.271.542-.677.542-.894 0-.217-.353-.894-.759-1.49-.596-.813-.84-1.49-.921-2.709-.109-1.219-.515-2.411-1.68-4.876-.867-1.787-1.68-3.44-1.815-3.657-.097-.154-.426-.788-.833-1.57l-.522-1.003c-.429-.857-.97-1.882-1.371-2.643l-.39-.743c-.38-.677-.867-1.517-1.138-1.896a88.218 88.218 0 0 0-.732-1.111c-.135-.244-.785-1.219-1.436-2.167-.623-.948-1.138-1.869-1.138-2.004 0-.136-.352-.813-.812-1.49-.434-.677-.732-1.3-.651-1.436.054-.108-.054-.515-.271-.921a27.153 27.153 0 0 1-.948-2.248c-.271-.813-.921-2.33-1.382-3.386a116.13 116.13 0 0 1-1.815-4.199c-.542-1.273-1.192-3.277-1.49-4.469-.271-1.192-.623-2.899-.759-3.793-.059-.393-.145-1.017-.243-1.73a264.86 264.86 0 0 0-.407-2.875c-.217-1.625-.488-4.388-.569-6.095-.108-1.706-.244-3.169-.271-3.25-.054-.081-.163-1.436-.244-3.034-.135-2.248-.081-2.925.19-2.925.162-.028.623.216 1.002.487.38.271 1.355.84 2.168 1.273.813.407 3.143 1.598 5.148 2.628 2.005 1.029 3.793 1.842 3.928 1.842.163 0 1.03.379 1.978.812.921.461 1.951.813 2.303.813.325 0 .732.108.867.271.163.135 1.49.515 2.98.813 1.491.298 4.065.623 5.69.704 2.222.135 3.658.081 5.69-.271 1.49-.244 3.441-.731 4.335-1.083l.668-.262c.645-.252 1.202-.47 1.364-.551.217-.081 1.463-.813 2.764-1.598 1.273-.759 3.414-2.384 4.741-3.549a137.817 137.817 0 0 0 4.498-4.334 2251.45 2251.45 0 0 0 5.554-5.851c1.897-2.005 4.227-4.442 5.202-5.418.976-.975 2.845-2.979 4.2-4.469 1.327-1.49 2.465-2.763 2.574-2.844.081-.082.731-.921 1.463-1.897.758-.975 2.33-2.844 3.522-4.198 1.219-1.328 2.493-2.682 2.872-3.007.379-.325.813-1.056 1.002-1.625.163-.57.461-1.842.651-2.818.189-.975.352-2.004.352-2.302 0-.298-.109-1.084-.217-1.76-.135-.678-.596-1.68-1.084-2.276-.542-.65-1.544-1.382-2.736-1.978-1.03-.487-2.628-1.083-3.522-1.327a50.968 50.968 0 0 1-2.981-.84c-.731-.216-2.438-.84-3.793-1.354-1.327-.515-2.682-1.084-2.98-1.246-.285-.13-1.733-.877-3.28-1.676l-.215-.112c-1.626-.84-3.008-1.706-3.089-1.923-.054-.217.108-.813.379-1.3.298-.515 1.003-1.463 1.599-2.113.596-.677 1.273-1.22 1.49-1.192.217 0 .65.162.948.352.298.19 1.463.623 2.574.975 1.111.352 2.71.867 3.522 1.165.813.298 2.168.894 2.981 1.3a87.15 87.15 0 0 0 3.522 1.734c1.111.542 2.113.975 2.249.975.108 0 .758.244 1.49.569.704.298 1.653.704 2.086.894.461.216 1.247.46 1.761.569.515.108 1.49.379 2.168.596.677.243 1.653.46 2.167.541.515.055 1.734.325 2.71.596.975.271 2.438.623 3.251.813.813.19 1.978.46 2.574.623a82.07 82.07 0 0 1 3.062.92c1.056.353 2.519.949 3.251 1.301.704.352 1.896.975 2.628 1.382.759.379 1.544.867 1.761 1.083.217.217.569.407.759.407.162 0 .596.379.948.84.515.73.542.866.19 1.191-.217.19-1.003.542-1.761.759-1.03.297-1.68.352-2.71.162a67.494 67.494 0 0 1-3.657-.975 45.319 45.319 0 0 1-3.387-1.165c-.596-.27-1.572-.623-2.168-.813-.42-.114-1.056-.323-1.632-.512-.241-.08-.471-.155-.671-.219-.677-.217-2.14-.65-3.251-.92-1.111-.299-2.33-.516-2.709-.516-.488 0-1.111.46-2.114 1.544-.786.867-1.409 1.653-1.409 1.788 0 .109.325.65.705 1.22.406.541 1.246 1.408 1.896 1.895.651.46 1.274.867 1.409.867.109 0 .678.244 1.274.515.596.27 2.303 1.002 3.793 1.598a211.11 211.11 0 0 0 4.606 1.76 45.44 45.44 0 0 0 3.658 1.111 38.16 38.16 0 0 0 3.793.596c1.544.136 2.438.055 3.657-.298.894-.243 2.52-.866 3.604-1.381 1.355-.65 2.222-1.273 2.872-2.059.488-.65 1.165-1.68 1.49-2.302.434-.894.569-1.68.569-3.332 0-1.95-.081-2.33-.894-3.711-.488-.867-1.409-2.086-2.032-2.709a17.391 17.391 0 0 0-2.141-1.842 41.765 41.765 0 0 1-2.113-1.436c-.596-.406-1.924-1.192-2.98-1.706-1.03-.542-3.062-1.382-4.471-1.87-1.409-.487-3.007-.975-3.522-1.11a60.295 60.295 0 0 1-2.574-.65 30.187 30.187 0 0 0-2.709-.677 67.52 67.52 0 0 0-1.382-.285c-.576-.115-1.219-.243-1.788-.365-1.165-.244-2.818-.678-3.658-.975-.867-.298-1.788-.542-2.032-.542-.271 0-1.409-.434-2.52-.948-1.111-.515-2.086-.948-2.167-.948-.073 0-.78-.306-1.649-.683l-.302-.13c-1.03-.46-2.303-1.056-2.845-1.355-.569-.297-1.246-.541-1.49-.541-.271 0-.786-.163-1.165-.352-.38-.217-1.165-.46-1.761-.57-.596-.135-1.626-.27-2.303-.324-.678-.082-1.734-.407-2.358-.786-.704-.406-1.734-.731-2.573-.785-.867-.082-1.599 0-1.87.19-.244.189-1.111 1.164-1.924 2.22-.812 1.057-1.815 2.438-2.194 3.116-.407.677-1.138 2.058-1.653 3.115-.488 1.056-1.111 1.977-1.355 2.113-.244.108-.704.108-1.029.027-.461-.136-.921.08-1.843.867-.677.595-1.354 1.245-1.517 1.462-.19.217-1.219 1.328-2.303 2.465-1.111 1.11-3.034 3.17-4.308 4.578-1.273 1.382-3.089 3.007-4.064 3.657-.975.623-2.493 1.571-3.387 2.059a39.055 39.055 0 0 1-2.709 1.408 23 23 0 0 1-2.71.867c-.894.244-2.465.515-3.522.623-1.029.081-2.872.163-4.064.136-1.192 0-2.899-.163-3.793-.353-.894-.19-2.276-.623-3.035-.975-.894-.406-1.571-.92-1.815-1.381a16.67 16.67 0 0 1-.786-1.978c-.379-1.11-.379-1.246.027-1.544.244-.19.624-.352.813-.352.163 0 1.518-.487 2.981-1.083 1.436-.623 3.495-1.246 4.524-1.409 1.057-.162 2.33-.515 2.845-.758.515-.271 1.328-.542 1.761-.65.461-.082 1.436-.65 2.168-1.246.427-.336.932-.75 1.383-1.119.35-.286.668-.546.893-.724a82.462 82.462 0 0 0 1.896-1.57l.795-.643c.344-.279.674-.546.885-.712.269-.18.917-.666 1.662-1.226.381-.287.788-.593 1.183-.887 1.192-.894 2.926-2.357 3.902-3.25l.481-.468c.809-.786 1.618-1.573 1.957-1.89a41.64 41.64 0 0 0 1.599-1.76 42.516 42.516 0 0 0 1.869-2.275c.515-.677 1.084-1.328 1.274-1.49.189-.163.812-.948 1.354-1.76.569-.814 1.382-1.87 1.816-2.303a7.217 7.217 0 0 0 1.192-1.544c.216-.434.46-.759.596-.759.108 0 1.083-1.11 2.194-2.492s2.114-2.844 2.249-3.25c.109-.434.244-.759.298-.759.027 0 1.03.298 2.222.704 1.707.542 2.682.677 4.606.677 1.355 0 3.116-.054 3.929-.135.812-.054 2.357-.244 3.386-.406l.304-.047c.953-.146 1.865-.286 2.135-.36.298-.054 1.084-.19 1.761-.298.677-.108 1.653-.352 2.167-.541.515-.19 1.626-.488 2.439-.678.813-.19 1.924-.541 2.438-.812.515-.244 1.355-.975 1.843-1.598.46-.596.867-1.409.867-1.788 0-.38-.244-1.084-.515-1.544-.325-.515-1.273-1.328-2.249-1.896-.948-.542-2.059-1.138-2.52-1.3-.433-.136-.704-.38-.596-.488.136-.109.353-.217.488-.244.135-.054.406-.081.596-.081.163 0 .596-.244.948-.542.325-.298.542-.731.461-.948-.081-.217 0-.406.135-.406.163 0 .326.216.407.487.081.244-.027.623-.19.84-.298.325-.271.38.136.217.244-.109.514-.19.596-.19.081 0 .054-.217-.027-.46-.082-.298.135-.813.569-1.3l.704-.813c-1.598-1.409-2.953-2.222-4.01-2.736-1.084-.515-1.978-1.03-1.978-1.192 0-.163.163-.271.352-.271.163 0 1.111-.406 2.087-.894 1.517-.813 1.869-1.11 2.519-2.384.732-1.435.732-1.49.326-2.681-.244-.678-.596-1.382-.759-1.572-.19-.216-1.057-.73-1.951-1.191-1.544-.786-1.734-.813-3.793-.65-.5.045-1.167.1-1.877.158-.982.081-2.047.17-2.864.248-1.409.135-4.092.541-5.961.92-1.87.38-3.685.813-4.064.949-.38.135-1.517.352-2.574.46l-1.897.217c.325-1.436.407-2.248.407-2.709 0-.65.244-1.11.894-1.706.46-.46 1.165-.894 1.544-.948.379-.055.867-.325 1.084-.542.217-.244.623-.434.894-.407.244 0 .867.298 1.355.65.46.353 1.3.76 1.815.949.515.162 1.869.298 2.98.298s2.764-.136 3.658-.298c.894-.163 2.113-.46 2.709-.65.597-.19 1.572-.57 2.168-.84.596-.244 1.436-.704 1.842-1.03.434-.297 1.003-.975 1.301-1.435.379-.677.488-1.22.379-2.167-.081-.813-.406-1.625-.813-2.167-.379-.488-1.192-1.11-1.815-1.355l-1.111-.487c.082-2.628-.054-3.576-.298-4.063-.217-.461-.813-1.22-1.355-1.68-.541-.488-1.436-1.002-1.977-1.165-.569-.135-1.328-.27-1.707-.27-.38 0-1.274.216-2.032.46-.894.325-1.87 1.002-2.872 1.977-.813.813-1.924 2.113-2.439 2.845-.515.758-1.219 1.814-1.544 2.383-.325.542-.732 1.653-.921 2.411-.163.84-.542 1.625-.867 1.896-.325.271-.759.488-.976.488-.217 0-.677-.46-1.002-1.002l-.596-1.03c2.438-5.038 3.034-6.69 3.197-7.774.162-.948.217-2.438.135-3.332-.054-.894-.216-1.977-.352-2.438-.163-.433-.759-1.273-1.355-1.815zm-45.138 17.282c-.298-.082-1.328-.217-2.303-.326-.976-.08-1.816-.108-1.897-.027-.081.082-.786.217-1.544.298-.786.082-1.518.217-1.626.271-.135.082-.759.19-1.436.271-.677.108-1.328.271-1.49.407-.136.108-.569.297-.948.379-.38.054-1.978.677-3.577 1.381-1.625.677-2.926 1.192-2.926 1.11 0-.08-.271.055-.596.272-.352.216-.84.406-1.084.406-.271 0-.487.19-.487.406 0 .244-.244.407-.597.407-.352 0-.867.162-1.165.379-.298.217-1.138.596-1.896.84-.732.243-1.897.785-2.574 1.191-.677.407-2.005 1.03-2.98 1.382a11.14 11.14 0 0 1-3.658.596c-1.03 0-2.086-.054-2.303-.108a4.847 4.847 0 0 1-1.003-.434 5.004 5.004 0 0 0-1.083-.406c-.271-.027-.895-.325-1.355-.677-.488-.325-.948-.596-1.03-.596-.081 0-.704-.244-1.409-.57-.731-.324-1.707-.785-2.221-1.029-.705-.325-.949-.352-1.03-.108-.054.235-.397.307-1.029.217-.515-.081-.949-.054-.949.054 0 .136.244.623.542 1.084.298.487.677.893.813.893.163 0 .325-.19.406-.406.109-.298.244-.325.542-.135.217.162.542.216.678.135.162-.081.46.027.704.19.244.19.569.623.677.948.136.38.596.704 1.057.813.461.135.813.379.813.541 0 .19.162.352.352.352.244 0 .244.055 0 .217-.244.136-.271.46-.081 1.192.162.623.433 1.03.677 1.03.217 0 .461-.109.542-.271.081-.163-.135-.515-.461-.813-.541-.46-.568-.515-.135-.542.244 0 .65.38.894.867.244.488.488.948.542 1.03.054.08.298-.055.515-.272.379-.352.433-.352.406.19 0 .352-.108.623-.271.623a.272.272 0 0 0-.271.27c0 .163.488.272 1.084.272.596 0 1.138-.109 1.219-.271.082-.163-.162-.271-.542-.271-.379 0-.677-.108-.677-.27 0-.163.379-.245.813-.218.46.055.813.163.813.271 0 .136.298.325.677.488.379.162.677.38.677.542 0 .162.163.19.488.027.298-.163.623-.136 1.003.135.46.352.487.434.135.65-.352.244-.352.298 0 .515.271.163.569.09.894-.217.271-.243.705-.46.948-.487.244-.027.732-.109 1.084-.19.325-.081.596-.054.596.108 0 .163.19.271.407.271.216 0 .406-.162.406-.352-.027-.244.054-.244.325 0 .19.19.461.271.569.136.109-.109.19-.434.19-.732 0-.514 0-.514.325-.027.298.406.461.46.975.19.461-.244.678-.217 1.003.108.217.217.406.623.433.867.018.307.091.244.217-.19.136-.433.054-.92-.217-1.435-.243-.407-.514-.732-.623-.732-.135 0-.298.217-.406.46-.163.434-.19.407-.407-.135-.162-.433-.081-.758.326-1.219l.541-.596c.515 1.382.759 1.761.895 1.761.108 0 .135.081.081.19-.054.135.162.244.46.244.407.027.624-.136.678-.461.027-.298-.082-.488-.271-.433-.19.054-.569-.136-.813-.407-.271-.27-.488-.541-.488-.623 0-.081.271-.162.623-.216.434-.027.569-.217.515-.596-.054-.325 0-.434.136-.244.108.162.731.38 1.381.487.895.136 1.138.082 1.138-.243 0-.217.163-.352.353-.271.162.081.298.46.271.812-.055.38-.19.623-.353.542-.135-.081-.271-.027-.271.136 0 .162.136.325.271.406.163.081.515-.135.813-.488.298-.325.569-.785.569-1.002 0-.217.163-.65.38-.948.243-.298.406-.433.406-.27-.027.162.162.108.406-.082.217-.19.325-.542.244-.813-.063-.203-.097-.311-.079-.32.021-.012.109.103.296.347.244.325.515.407.894.271.379-.162.488-.108.352.136-.135.19-.054.325.19.325.271 0 .352-.136.217-.46-.19-.38-.109-.407.406-.272.325.109.596.109.596-.027 0-.108-.217-.433-.488-.704-.227-.27-.335-.398-.312-.428.02-.027.149.027.394.13.298.108.921.217 1.409.244.46 0 .785 0 .731-.055-.054-.027.325-.514.84-1.083.515-.542 1.057-.894 1.165-.785.108.135 0 .379-.244.541-.244.19-.515.732-.596 1.192-.108.488-.108.894.027.894.109 0 .325-.108.488-.217.163-.108.271-.514.217-.948-.082-.569 0-.731.379-.704.244.027.732.027 1.084 0 .325-.027.596-.19.596-.433 0-.325.108-.353.623-.109.434.244.623.244.677 0 .027-.19.19-.216.461-.027.217.163.623.217.894.136.244-.082.623-.38.813-.678.271-.433.271-.623 0-.948-.298-.352-.271-.433.054-.433a5.67 5.67 0 0 0 1.03-.136c.406-.08.596.028.596.298 0 .217.189.46.406.542.217.081.461.136.542.136.081 0 .136-.109.136-.271 0-.163.189-.46.406-.677.217-.217.406-.65.406-.949 0-.298.19-.541.407-.541.271 0 .361-.181.271-.542-.082-.298-.325-.542-.542-.542-.217 0-.352-.108-.271-.27.081-.136.515-.272.948-.272.705 0 .813-.08.759-.677-.054-.38-.298-.704-.623-.785zm-46.196 5.58c0-.136-.406-.244-.894-.271-.488-.027-1.029.054-1.192.162-.244.136-.19.325.19.65.298.271.704.488.894.488.217 0 .189.09-.081.271-.217.135-.271.27-.136.27.163 0 .461-.107.677-.243.244-.163.326-.406.217-.677-.135-.244-.108-.434.054-.434.163 0 .271-.108.271-.216zm-2.98.487a2.236 2.236 0 0 0-.867-.244c-.126.019-.35.06-.572.103l-.322.06c-.298.081-.867.38-1.274.65-.433.298-.92.515-1.083.515-.19 0-.38.108-.407.27-.054.163.217.434.623.597.542.298.65.487.542 1.083-.135.596-.081.732.244.623.217-.081.406-.298.406-.487 0-.163.271-.84.597-1.463.352-.65.785-1.22.975-1.3.163-.082.325-.027.325.135 0 .163.136.217.271.136.163-.082.325-.028.406.135.082.163.271.27.407.27.162 0 .271-.189.271-.405 0-.217-.244-.515-.542-.678zm-.054 1.3c-.027-.108-.352-.19-.732-.162-.38.027-.65.136-.623.217 0 .081.19.298.38.46.27.271.433.271.704 0 .189-.162.298-.406.271-.514zm6.611.949c-.244-.19-.542-.352-.651-.352-.081 0-.243.27-.325.595-.081.353-.162.786-.162.949 0 .19.135.352.271.352.162 0 .271-.19.271-.407 0-.27.18-.36.541-.27.326.08.542 0 .542-.217-.027-.163-.216-.46-.487-.65zm48.227.677c-.244-.244-1.246-.38-2.98-.407-1.436-.027-3.306.109-4.119.299-.812.19-1.734.433-2.032.541-.298.109-1.273.542-2.167.948-.894.407-2.71 1.273-4.037 1.95-1.328.65-3.062 1.545-3.847 2.005l-.48.28c-.799.467-1.886 1.1-2.663 1.59-.132.078-.27.16-.412.246-.885.532-1.931 1.16-2.515 1.487-.677.352-1.463.867-1.761 1.138-.298.243-1.138.785-1.896 1.219-.732.406-1.545.92-1.761 1.083-.217.19-1.382.867-2.574 1.49-1.328.704-2.791 1.219-3.793 1.382-.895.135-1.734.352-1.897.514-.181.18-.108.425.217.731.325.326.433.705.352 1.084-.136.488.027.731.731 1.165.461.27 1.274.623 1.734.731.597.136.922.407 1.03.813.108.569.217.596.948.352.624-.217.786-.406.678-.813-.082-.325.027-.596.271-.677.216-.081.542-.081.677 0a.473.473 0 0 1 .271.406c0 .163-.19.271-.406.271-.217 0-.353.082-.299.19.082.135.461.163.895.135.46-.08.921.055 1.165.325.216.244.487.461.623.434.108 0 .189-.19.189-.406 0-.244.163-.353.407-.271.217.08.46-.054.542-.271.09-.271.361-.361.813-.271.433.081.677.027.677-.217s.081-.244.325.027c.298.298.244.434-.19.759-.298.216-.406.379-.271.379.163 0 .678-.244 1.165-.542.461-.298.868-.65.868-.812 0-.163-.217-.271-.461-.271-.271 0-.65-.136-.84-.325-.271-.271-.325-.271-.325-.027 0 .19-.19.352-.407.352-.216 0-.406-.109-.406-.271 0-.163.136-.325.271-.406.163-.082.217-.244.135-.407-.081-.162.271-.27.813-.27.515 0 1.003.162 1.057.324.108.271.135.271.135 0 .027-.162.217-.325.434-.325s.406.109.406.271c0 .163.353.298.813.325.434.054.813.027.813-.054.027-.081-.244-.352-.596-.596-.542-.406-.569-.514-.217-.731.325-.217.434-.163.488.244.027.297.19.541.325.541.163 0 .271-.298.271-.677 0-.38.135-.677.271-.677.162 0 .244.19.217.433-.055.244.081.488.271.542.189.054.325-.135.325-.433s.135-.488.271-.407c.162.082.758.027 1.354-.135.786-.19 1.057-.38.949-.677-.082-.217-.055-.407.081-.407.108 0 .325.271.488.596.298.542.352.57.487.136.082-.244-.027-.759-.244-1.138-.243-.406-.298-.731-.135-.813.163-.08.325.109.406.407.082.298.244.541.353.541.108 0 .352-.162.541-.352.271-.27.326-.27.326 0 0 .19.298.352.677.352.433 0 .677-.162.677-.406 0-.216-.108-.406-.271-.406-.135 0-.243-.163-.189-.352.027-.19-.19-.298-.542-.271-.352.054-.623-.027-.623-.19 0-.162.162-.352.352-.46.162-.109.569-.19.867-.217.298 0 .542-.19.542-.406.027-.217.162-.38.352-.352.19.054.325-.082.325-.271 0-.244.081-.244.325.027.298.298.271.433-.108.677-.271.19-.461.487-.488.65 0 .19.163.325.352.27.163-.053.461-.351.596-.703.163-.325.542-.65.895-.705.325-.08.596-.243.596-.406a.475.475 0 0 0-.271-.406.636.636 0 0 1-.271-.488c-.027-.217.108-.217.406.081.244.217.434.298.407.136 0-.163.135-.108.325.054.271.27.271.433.027.677-.271.271-.217.46.271.84.325.27.65.46.731.46.082 0 .136-.406.136-.92 0-.515-.082-.867-.19-.813-.135.054-.325-.081-.488-.298-.18-.271-.18-.452 0-.542.163-.081.596-.135 1.03-.108.406.027.867.027 1.002.027.163-.027.109-.19-.081-.38-.162-.189-.271-.568-.189-.84.081-.243.379-.46.677-.46.298 0 .786.109 1.084.271.433.217.514.19.406-.135-.081-.244.027-.407.271-.407.217 0 .406-.08.406-.216 0-.109.353-.407.813-.677.596-.353.949-.38 1.355-.19.298.163.596.433.65.596.054.19.081.027.054-.38-.027-.379-.108-.65-.216-.595-.136.054-.326-.136-.488-.434-.181-.36-.181-.587 0-.677.162-.081.542 0 .894.163.461.216.65.216.786-.082.162-.27.271-.298.542 0 .271.271.271.325.027.325-.19 0-.352.19-.352.407 0 .243.189.379.487.325a.485.485 0 0 0 .407-.542c-.055-.27.108-.46.325-.46.216 0 .406-.109.406-.271 0-.163-.244-.325-.542-.407-.298-.08-.542-.243-.542-.406 0-.162.136-.217.271-.135.163.08.542-.055.894-.271.326-.217.705-.325.84-.217.136.135.19-.108.136-.488-.054-.406 0-.65.162-.596.163.055.271-.487.271-1.246 0-.758-.162-1.517-.352-1.706zm-48.823 11.62c-.596-.406-1.165-.73-1.274-.73-.135 0-.65.27-1.165.622-.515.325-1.246.948-1.625 1.409-.353.433-1.084 1.219-1.626 1.68-.515.487-1.246.947-1.626 1.029-.433.108-.867-.027-1.192-.325-.27-.271-.84-1.165-1.22-1.978-.73-1.463-.758-1.49-1.787-1.408-.596.054-1.192.216-1.355.352-.135.162-.271 1.219-.244 2.356.027 1.68.163 2.357.705 3.44.379.732.92 1.545 1.192 1.788.298.244 1.03.705 1.68 1.03.623.298 1.544.569 2.032.569.46 0 1.598-.271 2.465-.623 1.328-.488 1.924-.949 3.251-2.438.922-1.03 1.924-2.438 2.249-3.115.352-.705.623-1.626.623-2.086 0-.65-.216-.975-1.083-1.571zm36.848 1.03c0-.217-.109-.406-.271-.406a.271.271 0 0 0-.271.27c0 .163-.298.326-.678.407-.379.081-.677.244-.677.406 0 .163.135.325.271.407.162.08.379-.055.488-.271.108-.217.433-.407.677-.407.244 0 .461-.19.461-.406zm-19.048 8.397a.521.521 0 0 0-.352-.325 1.16 1.16 0 0 0-.515.054c-.135.055-.596.163-1.002.244-.434.081-.705.271-.623.434.081.162.271.216.406.135.163-.081.705-.162 1.219-.217.515-.027.894-.162.867-.325z" fill="#010101"/></svg>