<svg xmlns="http://www.w3.org/2000/svg" width="437" height="233" viewBox="0 0 437 233" fill="none">
  <path fill-rule="evenodd" clip-rule="evenodd" d="M412.062 0.227582C414.293 0.531572 419.06 1.34221 422.711 1.95019C426.362 2.55817 429.404 3.26748 429.607 3.57146C429.708 3.77412 428.999 6.30737 428.086 9.1446C427.072 11.9818 424.739 16.1364 423.015 18.2643C421.189 20.4935 418.755 22.2161 417.64 22.2161C416.524 22.2161 415.611 22.9255 415.611 23.7361C415.611 24.7494 416.625 25.256 418.958 25.256C420.682 25.256 423.725 25.56 425.55 25.9653C427.376 26.472 428.796 27.08 428.796 27.5866C428.796 27.9919 429.708 29.1066 430.824 30.1199C432.041 31.1332 433.765 34.9837 434.881 39.4422C435.996 43.5967 436.909 49.7778 436.909 53.1217C436.909 56.4656 436.199 61.7348 435.286 64.7747C434.374 67.8145 431.838 73.9957 429.607 78.4542C427.376 82.9127 422.711 91.3231 419.364 97.2002C416.017 103.077 412.163 109.36 410.642 111.184C408.411 114.021 407.802 114.426 406.585 113.21C405.469 112.096 406.686 109.157 414.191 94.7683C419.161 85.3446 424.942 73.8943 426.97 69.4358C429.1 64.876 430.824 60.8228 430.824 60.2148C430.824 59.6068 428.289 59.2015 425.246 59.2015C419.769 59.2015 419.668 59.3028 418.552 62.7481C417.842 64.6733 415.814 69.5372 413.786 73.3877C411.859 77.2382 408.309 83.2167 405.977 86.5606C403.542 89.9044 400.398 93.755 398.979 95.1736C397.255 96.7949 395.936 97.4028 395.328 96.6935C394.719 95.9842 396.342 92.6403 399.993 87.0672C403.137 82.3047 407.903 73.8943 410.642 68.3212C413.38 62.7481 415.916 56.3643 416.22 54.135C416.524 51.9058 417.031 49.3725 417.335 48.5619C417.741 47.3459 418.045 47.4473 419.262 49.0685C420.074 50.1832 420.682 52.1084 420.682 53.4257C420.682 55.4523 421.088 55.655 431.838 55.1483V51.0951C431.838 48.8659 431.128 43.0901 430.317 38.2262C429.1 30.9305 428.491 29.3092 427.072 29.3092C426.057 29.3092 423.015 29.0052 420.175 28.5999C417.031 28.1946 415.307 28.2959 415.713 28.8026C416.118 29.4106 418.045 30.1199 420.074 30.6265C422.305 31.0318 423.725 31.9438 423.725 32.8558C423.725 34.0717 422.812 34.2744 418.654 33.6664C415.814 33.1598 413.583 33.1598 413.583 33.6664C413.583 34.0717 415.713 34.9837 418.451 35.7943C421.088 36.5036 423.319 37.6183 423.522 38.3276C423.623 39.0369 421.696 39.4422 412.062 39.6449L415.408 41.0635C417.133 41.8741 418.654 42.9887 418.654 43.4954C418.654 44.1034 417.133 44.306 411.555 43.4954V47.5486C411.555 50.7911 411.96 51.7031 413.583 52.1084C414.699 52.4124 415.611 53.2231 415.611 53.9324C415.611 54.8443 414.698 54.9457 412.366 54.3377C410.54 53.9324 407.802 53.6284 406.281 53.6284C404.455 53.6284 403.441 53.1217 403.441 52.1084C403.441 51.1965 404.354 50.5885 405.774 50.5885C407.498 50.5885 408.309 49.7778 409.222 46.8393C410.338 43.5967 410.236 42.8874 409.019 42.2794C408.208 41.7728 407.498 40.7595 407.498 39.9489C407.498 39.1382 408.411 37.9223 409.526 37.4156C411.047 36.7063 411.352 35.997 410.54 34.8824C409.932 34.0717 409.83 32.7544 410.236 32.1465C410.642 31.4372 410.845 30.0185 410.743 29.1066C410.642 28.0933 410.946 27.08 411.555 26.776C412.163 26.472 412.569 25.1547 412.569 23.7361C412.569 22.3175 412.163 21.2028 411.555 21.2028C410.946 21.2028 409.425 20.0882 408.005 18.6696C405.977 16.643 405.469 15.1231 405.469 11.3739C405.469 8.63795 405.977 4.99008 406.686 3.06482C407.903 -0.177737 408.106 -0.279067 412.062 0.227582ZM294.619 17.1497C296.445 17.1497 298.676 17.3523 299.487 17.6563C300.298 17.9603 301.008 19.2776 301.008 20.6962C301.008 22.5201 300.096 23.6348 297.966 24.7494C296.343 25.56 295.126 26.776 295.43 27.2826C295.735 27.7893 295.532 28.4986 294.923 28.8026C294.315 29.1066 293.605 28.5999 293.098 27.688C292.692 26.776 291.982 26.0667 291.374 26.168C290.765 26.168 289.345 25.9653 288.027 25.7627C286.708 25.4587 285.796 24.4454 285.694 23.3308C285.694 22.2161 286.81 20.3922 288.433 19.2776C289.954 18.0616 292.692 17.1497 294.619 17.1497ZM347.762 24.2427C348.269 24.2427 348.675 24.8507 348.777 25.56C348.878 26.168 348.878 28.5999 348.777 34.8824L351.008 30.0185C352.225 27.384 353.543 25.1547 354.05 25.256C354.456 25.256 354.557 27.1813 354.253 29.6132C353.645 33.6664 353.746 33.7677 355.267 31.8425C356.18 30.7278 357.296 29.1066 357.803 28.2959C358.31 27.2826 359.223 27.08 360.237 27.5866C361.758 28.1946 361.657 28.5999 359.933 32.1465C358.918 34.1731 356.687 37.1116 354.862 38.7329C353.138 40.2528 351.413 41.4688 351.008 41.4688C350.501 41.4688 349.588 43.7994 348.878 46.7379C348.168 49.6765 346.444 54.5403 342.59 62.7481L344.72 66.5986C346.444 69.6385 346.647 71.3611 346.14 75.9209C345.734 78.9608 345.328 82.6087 345.125 84.0273C345.024 85.4459 345.328 89.2965 345.734 92.6403C346.241 96.0856 347.357 99.5308 348.371 100.544C349.385 101.557 351.616 102.368 353.543 102.267C355.369 102.267 360.642 100.24 365.713 97.7068C370.581 95.1736 375.145 93.3497 375.855 93.6536C376.464 93.9576 377.072 94.8696 377.072 95.6802C377.072 96.4909 374.03 99.0241 370.277 101.253C366.423 103.381 361.352 105.915 358.817 106.827C356.281 107.738 352.833 108.245 351.211 107.941C349.588 107.637 346.951 106.117 345.531 104.597C344.111 102.976 342.59 100.848 342.184 99.7334C341.779 98.6188 341.474 90.9177 341.576 82.5074C341.576 74.1983 341.373 67.5106 341.069 67.8145C340.764 68.1185 340.257 69.9425 340.055 71.8677C339.852 73.793 339.649 76.1236 339.649 76.9342C339.581 77.9475 339.209 78.1164 338.533 77.4409C337.925 76.8329 337.418 74.1983 337.316 71.3611C337.113 68.6252 337.418 64.9773 337.823 63.2547C338.635 60.3161 338.635 60.3161 337.113 62.2414C336.201 63.356 335.288 66.0919 334.882 68.3212C334.578 70.5505 334.172 73.185 333.868 74.1983C333.564 75.4143 332.955 75.7183 331.84 75.2116C330.521 74.5023 330.318 73.489 330.927 69.8411C331.333 67.3079 331.84 64.572 332.144 63.7614C332.55 62.4441 332.55 62.4441 331.535 63.7614C330.927 64.572 329.913 67.9159 329.203 71.1584C328.493 74.2997 327.58 76.9342 327.174 76.9342C326.667 76.9342 326.363 76.1236 326.363 75.2116C326.363 74.1983 326.769 70.8544 327.377 67.8145C327.986 64.7747 329 60.9241 329.71 59.4042C330.318 57.8842 331.738 56.5669 332.752 56.6683C333.665 56.6683 334.477 57.0736 334.477 57.6816C334.477 58.2895 335.592 58.3909 337.316 57.9856C338.837 57.6816 340.359 56.8709 340.764 56.263C341.17 55.655 342.691 51.7031 344.01 47.5486C345.633 42.7861 346.342 38.8342 345.937 36.909C345.633 35.1864 345.734 31.7411 346.038 29.1066C346.444 26.3707 347.154 24.2427 347.762 24.2427ZM76.1637 25.9653C76.6708 26.168 77.0765 27.08 76.9751 27.8906C76.8736 28.7013 75.0481 32.2478 68.7602 42.4821L71.5999 42.1781C73.4254 41.9755 76.5694 39.5435 80.9304 35.1864C84.5815 31.5385 88.6382 28.1946 90.0581 27.7893C91.4779 27.384 93.4049 27.2826 94.4191 27.688C95.3318 27.9919 96.1432 29.2079 96.1432 30.3225C96.1432 31.4372 95.4332 33.8691 94.5205 35.693C93.6077 37.4156 91.0722 40.9622 85.19 48.0552L87.624 50.8925C88.9425 52.4124 90.3623 54.8443 90.6666 56.4656C91.0722 57.9856 90.768 60.9241 90.1595 63.052C89.551 65.0786 87.7254 68.4225 86.0013 70.3478C84.3786 72.2731 82.046 73.8943 80.9304 73.8943C79.8148 73.8943 78.902 73.185 78.902 72.3744C78.902 71.5638 79.7134 70.4491 80.7276 69.9425C81.6403 69.5372 83.263 67.4092 84.2772 65.3826C85.19 63.356 86.0013 60.5188 86.0013 56.1616L83.9729 59.5055C82.8573 61.2281 80.4233 63.66 78.6992 64.7747C76.8737 65.8893 74.1354 66.8013 72.6141 66.8013C70.9914 66.8013 69.7744 66.2946 69.7744 65.5853C69.7744 64.876 71.5999 63.4574 73.8311 62.5454C76.2651 61.4308 79.1049 58.9989 80.9304 56.4656C83.7701 52.4124 83.8715 51.9058 82.4517 49.8792C81.6403 48.5619 81.2346 46.9406 81.6403 46.3326C82.046 45.6233 84.5815 42.1781 87.2183 38.7329C89.8552 35.1864 92.0864 31.8425 92.0864 31.3358C92.0864 30.8292 90.8694 31.2345 89.3481 32.2478C87.7254 33.2611 83.5673 37.0103 79.9162 40.3542C76.2651 43.7994 72.9183 46.6366 72.3098 46.5353C71.8027 46.5353 69.6729 46.9406 67.746 47.5486C65.1091 48.2579 63.385 49.7778 60.951 53.6284C59.1254 56.3643 56.9956 58.9989 56.3871 59.3028C55.6772 59.6068 54.0545 59.4042 52.8375 58.7962C51.519 58.1882 49.7949 56.0603 48.9836 54.135C48.1722 52.2098 47.4623 48.7645 47.4623 46.5353C47.4623 43.1914 47.9694 42.1781 50.302 40.7595C52.6346 39.3409 53.7502 39.2395 58.1112 40.2528C60.951 40.9622 63.2836 41.3675 63.2836 41.1648C63.385 41.0635 65.5148 37.7196 68.1517 33.6664C70.6871 29.7145 73.324 26.2693 74.0339 25.9653C74.6424 25.7627 75.5552 25.7627 76.1637 25.9653ZM304.355 28.2959C304.761 28.2959 305.065 28.8026 305.065 29.3092C305.065 29.9172 305.775 30.3225 306.586 30.3225C307.499 30.3225 306.384 31.8425 304.051 34.1731C301.718 36.1997 299.893 38.4289 299.893 38.9356C299.994 39.5435 302.023 37.9223 304.457 35.389C306.992 32.8558 308.818 30.2212 308.513 29.6132C308.311 28.8026 308.919 28.2959 310.136 28.2959C311.455 28.2959 312.164 29.0052 312.164 30.1199C312.063 31.6398 312.266 31.6398 313.686 30.3225C315.106 29.0052 315.308 29.0052 315.207 30.6265C315.207 31.5385 314.091 33.4637 312.672 34.8824C311.252 36.301 310.643 37.6183 311.15 37.9223C311.759 38.2262 312.976 37.8209 313.99 37.213C315.613 35.997 315.613 35.997 313.99 37.9223C312.976 39.0369 312.266 40.4555 312.266 40.9622C312.266 41.5701 311.353 42.7861 310.136 43.7994C308.209 45.4207 308.006 45.4207 306.079 43.4954C304.457 41.8741 303.544 41.6715 301.516 42.4821C300.096 43.0901 298.98 43.1914 298.98 42.7861C299.081 42.2794 298.473 42.5834 297.763 43.2927C297.053 44.002 293.301 45.0153 289.345 45.522C285.39 46.0286 280.522 46.7379 278.392 47.2446C274.842 47.9539 274.64 47.8526 274.64 45.826C274.64 43.9007 274.234 43.5967 272.408 44.002C271.09 44.2047 268.352 45.1167 266.323 46.0286C264.194 46.8393 262.469 48.0552 262.469 48.5619C262.469 49.1699 263.484 49.7778 264.802 50.0818C266.019 50.3858 270.684 50.5885 275.147 50.5885C279.609 50.5885 288.534 49.8792 294.923 49.0685C301.313 48.2579 310.339 46.7379 315.004 45.7247C319.568 44.8127 323.32 43.6981 323.32 43.2927C323.32 42.7861 321.698 41.9755 319.771 41.4688C317.235 40.7595 316.221 39.8475 316.221 38.4289C316.221 36.7063 316.728 36.5036 319.568 37.0103C321.292 37.3143 324.335 38.3276 326.16 39.1382C328.696 40.2528 329.608 41.2661 329.507 43.0901C329.406 44.4074 328.391 46.2313 327.174 47.0419C325.856 47.8526 323.32 48.7645 321.596 49.0685C318.858 49.4739 318.452 49.8792 319.264 51.0951C319.974 52.1084 319.872 53.1217 319.061 54.2364C318.351 55.047 316.83 55.959 315.714 56.263C313.787 56.7696 313.686 56.8709 315.613 57.9856C317.033 58.8975 317.337 59.7082 316.728 61.2281C316.323 62.3427 316.018 64.268 316.12 65.5853C316.12 66.8012 315.613 68.1185 315.004 68.5239C314.294 68.9292 310.542 69.9425 299.893 72.3744L295.025 85.5473C292.388 92.843 288.027 102.875 285.491 107.84C282.956 112.805 279.913 118.479 276.668 123.546H279.711C281.333 123.546 284.274 124.154 286.1 124.863C288.23 125.775 289.954 127.599 291.272 130.234C292.591 132.97 293.402 138.239 294.112 147.865C294.72 155.363 294.923 170.664 294.72 181.811C294.416 194.983 293.909 202.887 293.098 204.407C292.286 205.826 291.272 206.434 290.157 206.13C289.142 205.826 287.723 205.927 287.013 206.332C286.303 206.839 285.593 208.663 285.289 213.831L293.706 214.236C298.27 214.54 303.24 215.351 304.862 216.161C306.384 216.871 307.905 218.087 308.311 218.897C308.615 219.708 308.615 220.823 308.311 221.43C307.905 222.038 306.485 223.153 305.065 223.862C303.645 224.572 298.473 225.382 293.402 225.585C288.433 225.788 278.291 226.7 271.09 227.612C263.889 228.524 257.094 229.03 256.181 228.625C254.863 228.118 254.457 227.206 254.964 225.18C255.269 223.558 256.79 219.505 258.514 216.06C260.137 212.513 261.151 209.575 260.745 209.474C260.238 209.474 259.224 209.372 258.413 209.271C257.398 209.203 256.79 207.819 256.587 205.116C256.384 202.887 256.79 195.389 257.398 188.397C258.108 181.405 259.325 171.576 260.34 166.611C261.658 159.518 262.368 157.39 263.788 157.289C265.208 156.985 265.411 157.593 265.005 160.835C264.701 162.862 263.788 171.88 262.977 180.797C262.165 189.714 261.252 199.442 260.441 207.65L263.281 206.636C264.802 206.13 271.09 204.812 288.331 201.874L289.142 191.336C289.548 185.56 289.65 170.766 289.345 158.505C288.94 146.244 288.331 134.692 287.723 132.97C287.216 131.146 285.796 129.119 284.579 128.511C283.26 127.802 279.406 127.396 275.958 127.498C272.408 127.498 264.396 128.714 258.21 130.031C251.922 131.45 245.837 132.868 244.721 133.274C243.504 133.679 242.997 133.578 243.403 133.071C243.91 132.564 243.707 131.551 243.2 130.943C242.591 130.234 242.389 129.22 242.693 128.612C242.997 128.004 243.91 127.599 244.721 127.599C245.533 127.599 246.242 128.308 246.242 129.119C246.242 130.132 247.02 130.504 248.575 130.234C249.792 130.031 254.964 128.714 259.934 127.194C265.005 125.775 269.873 124.559 270.887 124.559C272.104 124.559 274.234 121.317 278.088 113.21C281.13 106.928 286.404 94.8696 289.751 86.5606C293.199 78.2515 295.938 71.1584 295.938 70.8544C295.938 70.5505 294.619 70.5504 293.098 70.7531C291.577 70.9558 288.433 70.1451 286.1 68.9292C283.666 67.7132 281.536 66.8013 281.232 66.8013C280.928 66.8013 280.725 67.4092 280.725 68.1185C280.725 68.7265 277.682 75.5156 273.93 83.014C270.076 90.5124 265.816 99.4294 264.295 102.773C262.875 106.117 260.948 109.157 260.035 109.664C259.021 110.069 257.804 109.765 256.891 108.853C256.08 108.042 254.66 104.8 253.849 101.76C252.835 98.1122 251.415 95.5789 249.792 94.4643C248.474 93.451 247.662 92.3363 248.068 91.931C248.474 91.5257 249.995 91.627 251.618 92.235C253.545 92.843 254.964 94.5656 258.92 103.584L261.759 96.5922C263.382 92.7417 267.743 83.4193 271.496 75.9209C278.088 62.7481 278.392 62.2414 281.232 62.4441C282.956 62.6467 286.911 64.0653 290.157 65.788C295.228 68.4225 296.445 68.7265 300.298 67.9159C304.254 67.1052 304.355 67.0039 301.313 66.9026C298.676 66.8012 297.966 66.3959 297.966 64.7747C297.966 63.2547 298.777 62.6467 301.313 62.4441C303.24 62.2414 302.53 62.0387 299.284 61.9374C294.619 61.7348 293.909 61.4308 293.909 59.7082C293.909 58.3909 294.72 57.4789 296.242 57.2762C297.459 56.9723 301.82 56.0603 305.876 55.2497C309.832 54.3377 313.179 53.3244 313.179 52.9191C313.179 52.4124 307.803 52.6151 301.313 53.1217C294.72 53.7297 283.869 54.135 277.175 54.135C266.729 54.135 264.498 53.831 261.455 52.0071C259.528 50.8925 257.906 49.2712 257.906 48.4606C257.906 47.6499 259.934 46.0286 262.469 44.7114C265.005 43.3941 269.467 42.2794 272.611 42.0768C275.654 41.8741 278.494 41.6715 279.001 41.5701C279.406 41.5701 279.711 40.8608 279.711 40.2528C279.711 39.5435 280.725 37.4156 282.043 35.693C283.26 33.8691 284.781 32.3491 285.289 32.3491C285.897 32.2478 285.897 32.7544 285.187 33.5651C284.579 34.2744 283.767 35.693 283.463 36.7063C282.855 38.1249 283.26 38.1249 286.1 36.1997C287.824 34.9837 289.954 33.1598 290.664 32.1465C291.272 31.1332 292.489 30.3225 293.199 30.4239C293.909 30.4239 294.011 30.7278 293.402 31.0318C292.794 31.2345 292.185 31.9438 292.084 32.4505C291.982 32.9571 292.794 32.9571 293.909 32.3491C295.025 31.8425 295.938 31.5385 295.836 31.8425C295.735 32.1465 297.459 31.4372 299.589 30.3225C301.82 29.2079 303.848 28.2959 304.355 28.2959ZM156.487 36.4023H159.327C160.848 36.4023 165.615 38.2262 169.976 40.5568C174.235 42.7861 180.929 47.2446 184.783 50.3858C188.637 53.527 194.519 59.4042 197.967 63.2547C201.415 67.1052 206.385 73.5903 209.123 77.4409C211.963 81.2914 214.397 84.7366 214.6 85.0406C214.904 85.3446 215.208 84.9393 215.411 84.3313C215.614 83.622 216.73 83.014 217.845 83.014C218.961 83.014 219.874 83.4193 219.874 84.0273C219.874 84.6353 222.003 86.4592 224.742 88.1818C229.103 91.0191 230.016 91.2217 235.898 90.7151C241.273 90.2084 242.287 90.3098 242.896 91.931C243.301 93.0457 242.794 94.059 241.577 94.8696C240.563 95.5789 238.028 96.3895 236.101 96.6935C234.174 96.9975 230.827 98.0108 228.697 99.0241C226.567 99.9361 224.64 101.456 224.235 102.267C223.93 103.077 223.423 112.501 223.119 123.039C222.916 133.578 222.308 142.697 221.801 143.305C221.124 143.981 220.482 143.812 219.874 142.799C219.367 141.988 218.657 137.124 218.251 132.159C217.845 126.687 218.15 119.391 218.859 113.92C219.468 108.954 220.685 103.28 221.496 101.557C222.308 99.6321 224.133 97.8082 228.494 96.0855L225.452 94.5656C223.829 93.755 221.294 91.931 219.874 90.6137C218.454 89.1951 217.034 88.0805 216.628 88.0805C216.121 88.0805 215.817 88.7898 215.817 89.6004C215.817 90.4111 215.411 91.1204 214.803 91.1204C214.296 91.1204 213.789 90.2084 213.789 89.0938C213.789 87.9792 213.383 87.0672 212.774 87.0672C212.267 87.0672 209.123 83.5207 205.777 79.2648C202.531 74.9076 195.128 66.8012 189.347 61.2281C183.566 55.5536 176.771 49.5752 174.235 47.8526C171.7 46.2313 167.745 43.7994 161.051 40.4555L160.95 52.9191C160.95 59.7082 160.747 66.1933 160.544 67.3079C160.24 68.8278 161.761 70.5505 166.933 74.401C170.584 77.2382 178.901 84.534 185.391 90.7151C191.781 96.8962 199.286 105.104 202.024 108.954C205.269 113.514 206.689 116.554 206.284 117.77C205.979 118.682 205.067 119.493 204.458 119.391C203.748 119.391 200.908 116.149 198.069 112.298C195.33 108.346 185.594 97.9095 176.568 88.9925C167.44 80.1768 159.327 72.881 158.516 72.881C157.704 72.881 156.791 72.1717 156.487 71.3611C156.183 70.5505 155.98 68.0172 155.98 61.7348L152.937 64.0653C151.213 65.2813 149.591 67.0039 149.388 67.8145C149.084 68.6252 148.069 69.8411 147.157 70.4491C146.142 71.0571 144.013 71.8677 142.289 72.2731C140.159 72.7797 138.739 72.577 137.522 71.4624C136.203 70.2465 136.001 69.3345 136.609 68.1185C137.218 67.0039 137.218 65.6866 136.711 64.7747C136.203 63.964 136.001 62.4441 136.203 61.5321C136.508 60.5188 136.102 59.5055 135.189 59.2015C134.378 58.8975 133.668 57.8842 133.668 56.9723C133.668 55.959 134.784 53.6284 136.001 51.7031C137.218 49.7778 140.26 46.6366 142.796 44.8127C145.331 42.8874 148.069 41.4688 148.881 41.4688C149.794 41.4688 147.765 44.2047 144.114 48.0552C140.564 51.7031 137.928 54.9457 138.232 55.4523C138.536 55.8576 140.666 54.2364 143.1 52.0071C145.433 49.6765 148.374 47.2446 149.692 46.6366C150.909 46.0286 151.923 45.826 151.923 46.3326C151.822 46.7379 150.402 48.4606 148.576 50.0818C146.751 51.8044 144.215 54.743 142.796 56.6683C141.477 58.5935 140.97 59.7082 141.781 59.1002C142.593 58.4922 145.534 56.263 148.171 54.0337C152.126 50.7911 153.242 50.2845 154.256 51.3991C155.27 52.5137 154.357 53.7297 149.895 57.7829C144.317 62.7481 144.317 62.7481 147.359 62.7481C149.084 62.7481 151.619 61.7348 153.14 60.4175C155.777 58.2895 155.879 57.6816 156.183 47.3459L156.487 36.4023ZM238.535 38.3276C239.143 38.3276 240.462 38.9356 241.374 39.6449C242.389 40.3542 243.504 42.9888 243.91 45.7247C244.62 49.9805 244.518 50.5885 242.896 50.5885C241.983 50.5885 240.969 49.9805 240.766 49.2712C240.563 48.5619 240.056 46.7379 239.752 45.218C239.447 43.6981 238.535 42.3808 237.825 42.3808C237.216 42.3808 231.638 44.8127 225.655 47.7512C219.671 50.6898 214.904 53.527 215.107 54.0337C215.411 54.6417 215.817 57.2762 216.831 64.6733L227.176 59.7082C232.957 56.9723 238.839 54.439 240.36 54.135C241.983 53.831 243.2 54.0337 243.2 54.5403C243.2 55.1483 239.955 57.1749 229.001 62.6467L231.537 64.6733C232.957 65.7879 234.275 66.5986 234.478 66.4973C234.782 66.3959 235.391 65.0786 235.898 63.66C236.709 61.7348 237.013 61.5321 237.52 62.6467C237.926 63.5587 237.723 65.484 237.115 67.0039C236.405 68.9292 235.391 69.7398 233.768 69.7398C232.551 69.7398 230.725 68.9292 229.711 68.0172C228.697 67.0039 227.886 65.6866 227.987 64.9773C227.987 64.268 227.784 63.66 227.48 63.66C227.176 63.66 225.147 64.572 222.916 65.6866C220.685 66.8012 218.251 67.7132 217.541 67.7132C216.933 67.7132 215.208 64.4707 213.89 60.4175C212.572 56.3643 211.76 52.5137 212.166 51.8044C212.47 51.0951 218.352 47.7513 225.147 44.4074C231.942 41.0635 238.028 38.3276 238.535 38.3276ZM72.5127 50.4872C74.1354 50.4872 75.9609 51.1965 76.5694 52.0071C77.4822 53.1217 77.5836 54.135 76.8737 55.5536C76.2651 56.6683 73.9325 58.4922 71.4985 59.6068C69.1658 60.7215 66.4276 61.6334 65.4134 61.6334C64.5006 61.6334 63.6893 61.1268 63.6893 60.4175C63.6893 59.7082 65.9205 58.0869 68.7602 56.8709C71.4985 55.655 73.8311 54.135 73.8311 53.527C73.8311 53.0204 72.9183 52.5137 71.8027 52.5137C70.6871 52.5137 69.7744 52.1084 69.7744 51.5005C69.7744 50.9938 70.9914 50.4872 72.5127 50.4872ZM395.226 51.9058C396.646 52.0071 397.863 52.5137 398.066 53.0204C398.269 53.6284 396.646 53.9324 394.313 53.831C391.271 53.6284 390.46 53.9324 390.967 54.8443C391.575 55.655 391.271 55.8576 389.952 55.351C389.04 54.9457 387.924 54.5403 387.417 54.5403C387.011 54.5403 388.025 53.831 389.75 53.1217C391.372 52.3111 393.908 51.8044 395.226 51.9058ZM126.264 54.6417C126.467 54.6417 127.481 55.047 128.597 55.5536C129.713 56.1616 130.625 57.3776 130.625 58.3909C130.625 59.4042 130.118 60.7215 129.408 61.4308C128.698 62.1401 126.772 62.7481 125.047 62.7481C123.425 62.7481 121.396 62.1401 120.686 61.4308C119.976 60.7215 119.368 59.6068 119.267 58.8975C119.267 58.0869 120.686 56.8709 122.613 56.0603C124.54 55.351 126.163 54.6417 126.264 54.6417ZM402.123 56.5669C402.731 57.4789 402.833 58.2895 402.325 58.3909C401.818 58.4922 401.818 59.4042 402.427 60.6201C402.934 61.7348 403.238 62.6467 402.934 62.6467C402.63 62.6467 403.137 63.7614 403.948 64.9773C404.962 66.4973 405.368 68.5238 404.962 70.7531C404.658 72.7797 403.745 75.009 402.934 75.8196C402.021 76.7316 401.616 78.1502 401.92 79.1635C402.224 80.1768 401.514 81.8994 400.094 83.318C398.674 84.8379 396.038 85.9526 392.792 86.3579C389.952 86.7632 386.91 86.8645 385.896 86.5606C384.882 86.2566 384.172 85.0406 384.172 83.4193C384.172 82.102 384.78 80.8861 385.389 80.7848C386.099 80.7848 388.228 80.7848 389.952 80.7848C391.778 80.8861 393.502 80.4808 393.806 79.8728C394.111 79.3661 393.603 78.8595 392.792 78.8595C391.981 78.8595 391.271 78.3528 391.271 77.6435C391.271 76.9342 390.257 75.9209 388.938 75.3129C387.62 74.705 386.808 73.5903 386.91 72.2731C387.011 71.1584 387.316 69.0305 387.62 67.5106C388.127 65.18 387.823 64.6733 386.2 64.6733C384.848 64.6733 384.341 64.1667 384.679 63.1534C384.983 62.3427 384.679 61.4308 384.172 61.1268C383.563 60.9241 383.36 60.2148 383.664 59.6068C383.969 59.1002 385.389 58.0869 386.91 57.4789C388.533 56.8709 392.285 56.0603 395.328 55.7563C399.689 55.2497 401.21 55.4523 402.123 56.5669ZM244.518 56.6683C245.228 56.6683 247.358 57.5802 249.285 58.7962C251.212 59.9108 254.052 62.0387 255.674 63.5587C257.196 65.0786 258.413 67.3079 258.413 68.5239C258.413 69.7398 257.5 71.2598 256.384 71.7664C255.269 72.3744 252.429 73.0837 249.995 73.489C245.938 73.9957 245.735 74.1983 245.634 77.7449C245.533 79.7715 244.721 82.9127 243.808 84.7366C242.896 86.5606 240.969 88.4858 239.346 88.9925C237.52 89.6004 235.999 89.6004 234.681 88.6885C233.565 88.0805 233.058 86.9659 233.362 86.2566C233.768 85.5473 234.681 84.9393 235.289 84.9393C235.999 84.9393 237.419 84.1286 238.433 83.2167C239.447 82.2034 240.157 81.0887 240.157 80.6834C240.157 80.2781 238.94 79.8728 237.318 79.8728C235.796 79.8728 233.159 78.9608 231.537 77.9475C229.813 76.9342 227.784 74.9076 226.973 73.489C226.162 71.9691 225.756 70.4491 226.162 70.0438C226.567 69.6385 227.987 70.6518 229.204 72.2731C230.523 73.8943 233.058 75.8196 234.782 76.5289C236.608 77.3395 238.839 77.8462 239.65 77.8462C240.462 77.8462 241.172 77.4409 241.172 76.8329C241.172 76.3262 240.462 75.2116 239.65 74.2996C238.839 73.489 238.129 72.0704 238.129 71.0571C238.129 69.8411 239.245 69.0305 241.881 68.5239C244.011 68.1185 246.952 67.8145 248.474 67.8145C250.096 67.8145 251.313 67.3079 251.313 66.6999C251.313 66.1933 249.285 64.1667 246.75 62.1401C244.214 60.2148 242.389 58.1882 242.693 57.5802C242.997 57.0736 243.808 56.6683 244.518 56.6683ZM60.8495 59.6068C61.2552 59.6068 61.6609 60.1135 61.6609 60.6201C61.6609 61.2281 61.1538 61.4308 60.6467 61.1268C60.0382 60.9241 59.6325 61.4308 59.6325 62.4441C59.6325 63.4574 58.4155 66.2946 56.7928 68.7265C55.1701 71.2598 51.9247 75.1103 49.3893 77.2382C46.9552 79.2648 42.4928 82.2034 39.5517 83.5207C36.7119 84.838 33.4666 86.0539 32.4524 86.0539C31.0325 86.0539 30.9311 85.8512 31.9453 84.534C32.6552 83.622 33.6694 83.2167 34.2779 83.4193C34.785 83.7233 35.3935 83.622 35.4949 83.2167C35.6978 82.8114 38.2332 80.6834 41.0729 78.6568C44.0141 76.5289 47.5637 73.793 48.9836 72.577C50.5049 71.3611 52.8375 68.4225 54.2573 66.1933C55.7786 63.964 57.7056 61.6334 58.5169 60.9241C59.4297 60.2148 60.4439 59.6068 60.8495 59.6068ZM132.248 61.6334C133.059 61.6334 134.074 62.4441 134.581 63.4574C135.088 64.4707 135.494 65.8893 135.291 66.6999C135.189 67.6119 134.784 68.8278 134.378 69.5372C133.972 70.2465 132.755 70.7531 131.64 70.7531C130.524 70.7531 129.611 70.3478 129.611 69.7398C129.611 69.2332 129.51 68.0172 129.408 67.0039C129.408 65.9906 129.611 64.4707 130.017 63.4574C130.423 62.4441 131.437 61.6334 132.248 61.6334ZM326.464 62.1401C326.972 62.4441 326.972 64.1667 326.363 66.4973C325.856 68.6252 325.349 73.5903 325.349 84.9393L332.042 84.23C338.432 83.5207 338.736 83.622 338.432 85.4459C338.128 87.1685 336.809 87.6752 325.349 89.4991V101.152C325.349 111.082 325.653 113.413 327.377 116.149C328.493 117.973 330.927 120.303 332.651 121.418C334.984 122.938 337.823 123.445 342.083 123.546C345.835 123.546 350.805 122.634 355.267 121.114C359.121 119.797 365.511 117.263 369.466 115.44C374.233 113.312 376.869 112.602 377.579 113.312C378.086 113.818 378.289 115.034 377.782 115.845C377.377 116.757 373.32 119.29 368.655 121.621C364.091 123.951 357.803 126.687 354.76 127.7C351.718 128.714 346.444 129.626 343.097 129.626C338.432 129.626 335.694 129.018 331.535 126.788C327.276 124.661 325.45 122.938 323.523 119.391C321.495 115.642 321.191 113.514 321.191 106.725C321.292 102.267 321.698 91.627 322.205 82.9127C322.712 74.2996 323.625 65.9906 324.233 64.3693C324.943 62.8494 325.856 61.8361 326.464 62.1401ZM114.094 62.8494C116.123 63.052 117.948 63.7614 118.151 64.4707C118.252 65.18 117.137 67.1052 115.514 68.7265C113.891 70.4491 111.762 71.7664 110.95 71.7664C110.037 71.7664 108.618 71.1584 107.806 70.2465C106.995 69.4358 106.285 68.3212 106.285 67.7132C106.285 67.2066 107.198 65.7879 108.415 64.6733C109.835 63.1534 111.457 62.6467 114.094 62.8494ZM62.8779 65.484C63.1822 66.4973 63.5878 68.1185 63.5878 69.2332C63.5878 70.3478 62.5737 73.5903 61.2552 76.3262C59.9368 79.1635 56.3871 83.8247 53.446 86.7632C50.4034 89.7018 47.6651 92.1337 47.1581 92.1337C46.7524 92.1337 46.4481 91.627 46.4481 91.0191C46.4481 90.5124 46.8538 90.3098 47.4623 90.5124C47.9694 90.8164 48.3751 90.4111 48.1722 89.6004C48.0708 88.8911 49.8963 86.7632 52.229 85.0406C54.8659 83.2167 56.59 81.1901 56.59 79.8728C56.59 78.7582 56.9956 77.8462 57.6041 77.8462C58.1112 77.8462 59.3283 76.5289 60.1396 74.8063C60.951 73.185 61.2552 71.6651 60.7481 71.5637C60.1396 71.4624 60.241 69.7398 60.951 67.5106C61.8637 64.572 62.2694 64.1667 62.8779 65.484ZM125.25 64.6733C126.772 64.6733 127.583 65.2813 127.583 66.4973C127.583 67.5106 126.67 69.5372 125.555 71.0571C124.439 72.577 122.613 73.793 121.498 73.793C120.382 73.793 119.064 73.0837 118.557 72.0704C117.745 70.7531 118.252 69.6385 120.179 67.5106C121.701 65.9906 123.932 64.6733 125.25 64.6733ZM362.062 65.788C364.192 65.788 365.916 66.1933 365.916 66.6999C365.916 67.3079 363.584 68.2199 360.845 68.7265C358.006 69.3345 355.572 70.2465 355.267 70.7531C354.963 71.4624 357.093 71.7664 361.048 71.5637C366.626 71.3611 367.438 71.5637 367.133 73.0837C367.032 74.097 367.336 74.8063 367.945 74.8063C368.452 74.8063 371.596 73.6917 374.74 72.1717C377.985 70.7531 381.028 69.9425 381.433 70.4491C381.94 70.9558 380.825 73.6917 378.898 76.6302C377.072 79.5688 374.334 82.5074 372.813 83.2167C370.92 84.0273 370.311 84.7704 370.987 85.4459C371.494 86.0539 371.697 86.8645 371.291 87.2699C370.987 87.6752 369.567 87.9792 368.249 87.9792C366.93 87.9792 365.206 87.3712 364.395 86.4592C363.584 85.6486 362.874 84.534 362.874 83.926C362.874 83.4193 363.685 82.71 364.598 82.406C365.612 82.102 368.249 80.9874 374.537 78.0489L369.162 78.7582C364.902 79.2648 363.888 79.1635 363.786 77.8462C363.685 77.0356 363.685 76.0223 363.786 75.6169C363.786 75.2116 361.758 75.1103 359.02 75.5156C356.18 75.9209 353.34 75.7183 351.921 75.009C350.703 74.401 349.689 73.0837 349.689 72.0704C349.588 71.0571 350.196 69.7398 350.906 69.0305C351.616 68.3212 353.543 67.4092 355.267 66.9026C356.89 66.2946 360.034 65.8893 362.062 65.788ZM106.488 72.881C107.603 72.881 108.313 73.5903 108.313 74.6036C108.313 75.6169 107.502 77.2382 106.488 78.1502C105.575 79.1635 103.75 79.9741 102.431 79.9741C100.403 79.9741 100.301 79.6701 101.315 77.1369C102.025 75.6169 103.04 74.097 103.648 73.5903C104.257 73.185 105.575 72.881 106.488 72.881ZM88.7396 76.3262C90.0581 77.4409 93.912 82.5074 97.1573 87.4725C102.33 95.2749 103.242 97.5042 103.75 102.672C104.155 106.016 104.967 110.069 105.575 111.69C106.386 113.616 108.009 114.933 110.646 115.744C113.993 116.757 115.007 117.77 118.05 123.951C120.078 127.903 121.295 131.348 120.788 131.754C120.382 132.159 113.08 133.172 104.764 134.084C96.346 134.996 84.2772 136.617 77.8878 137.833C71.4985 138.948 65.5148 140.265 64.7034 140.873C63.5878 141.583 63.7907 141.785 65.7176 141.38C67.1375 141.076 73.2226 140.164 79.4091 139.252C85.4942 138.34 94.419 137.225 99.1857 136.82C107.198 136.009 108.009 136.111 110.139 138.036C111.457 139.252 117.745 147.054 124.135 155.363C130.423 163.774 138.333 174.008 147.664 185.762L149.489 181.912C150.605 179.683 152.633 176.845 154.155 175.528C155.777 174.211 157.603 173.198 158.211 173.198C158.921 173.198 160.24 173.603 161.051 174.109C162.369 174.92 162.369 175.731 161.355 179.379C160.747 181.811 159.023 187.89 157.603 192.855C156.183 197.922 153.85 205.623 152.43 210.082C151.011 214.54 149.895 219.607 149.895 221.228C149.996 222.95 149.286 224.876 148.374 225.585C147.157 226.598 145.94 226.294 141.781 223.761C138.401 221.734 135.865 220.89 134.175 221.228C132.045 221.734 130.93 220.823 126.772 215.655C124.135 212.311 121.802 209.575 121.498 209.676C121.194 209.676 118.05 206.231 114.398 201.874C110.747 197.618 104.054 188.802 99.3885 182.419C94.7233 175.933 89.3481 168.232 83.9729 159.923L81.4375 161.747C80.119 162.761 78.6992 164.28 78.3949 165.294C78.0907 166.307 76.7722 167.32 75.3524 167.523C73.9325 167.827 73.0198 168.536 73.324 169.043C73.6283 169.651 73.1212 170.056 72.3098 170.056C71.3971 170.056 70.3829 171.576 69.7744 173.603C69.1659 175.629 68.4559 177.048 67.9488 176.845C67.5432 176.744 66.2247 177.656 64.9063 178.872C63.6893 180.189 62.8779 181.203 63.1822 181.203C63.4864 181.203 62.6751 182.419 61.3566 183.938C60.1396 185.357 57.4013 188.397 55.2715 190.728C53.1417 193.058 51.4176 195.186 51.4176 195.389C51.519 195.693 50.0992 197.415 48.4765 199.239C46.7524 201.063 45.4339 202.887 45.4339 203.292C45.5354 203.698 43.7098 206.028 41.3772 208.359C39.146 210.69 37.1176 212.311 36.8134 211.905C36.5091 211.5 36.3063 211.804 36.3063 212.615C36.3063 213.527 34.5822 215.047 32.5538 216.161C30.424 217.276 28.1928 218.087 27.6857 217.985C27.0772 217.884 23.7304 217.58 20.0793 217.175C16.4283 216.871 12.0673 216.465 10.4446 216.263C8.72046 216.06 7.09776 215.857 6.59067 215.756C6.185 215.756 6.185 215.148 6.59067 214.439C6.99634 213.729 6.48925 213.831 5.47507 214.641C4.05521 215.959 3.54812 215.959 2.53393 214.844C1.62117 213.729 1.62117 213.324 2.53393 213.02C3.24386 212.817 3.85237 212.007 3.85237 211.095C3.85237 210.284 5.47507 206.332 7.50344 202.279C9.53181 198.226 13.4871 191.538 16.3268 187.282C19.1666 183.128 25.9616 174.211 31.4382 167.523C37.0162 160.835 43.6084 152.932 46.2453 149.892C48.8822 146.852 53.2432 141.684 55.9815 138.239C58.6183 134.895 61.5595 130.842 62.2694 129.322C63.0807 127.802 63.385 126.484 62.8779 126.484C62.4722 126.484 61.2552 128.004 60.1396 129.828C59.024 131.652 54.4602 137.529 49.9978 142.9C45.5354 148.27 40.6673 154.35 39.0446 156.275C37.5233 158.302 34.5822 160.633 32.4524 161.545C29.1056 162.963 28.2942 162.963 24.6432 161.646C22.4119 160.734 18.6595 157.998 16.2254 155.465C13.8928 152.932 11.8644 150.094 11.763 149.081C11.6616 148.068 11.5602 146.345 11.5602 145.23C11.4588 143.812 10.6474 143.204 8.61904 143.001C7.09776 142.9 5.17081 141.684 4.35946 140.468C3.34528 138.948 2.83819 135.604 2.73677 130.538C2.73677 124.762 2.43251 122.735 1.11407 121.925C0.201308 121.418 -0.204365 120.405 0.0998899 119.695C0.505564 118.986 1.51975 118.378 2.3311 118.378C3.34528 118.378 3.68334 117.703 3.34528 116.352C3.04102 115.136 3.4467 114.122 4.35946 113.616C5.27223 113.21 6.48925 113.413 7.19918 114.122C8.11195 115.136 8.01053 115.744 6.38783 116.858C4.5623 118.175 4.5623 118.378 6.08358 118.378C7.09776 118.378 7.90911 118.885 7.90911 119.391C7.90911 119.999 8.31478 120.405 8.92329 120.405C9.43039 120.405 9.73464 119.493 9.43039 118.378C9.09233 117.027 9.43039 116.352 10.4446 116.352C11.3573 116.352 11.763 117.061 11.4588 117.871C11.1545 118.783 11.3573 119.695 11.9658 119.898C12.4729 120.202 12.98 119.898 12.98 119.189C12.98 118.479 13.7914 117.061 14.8056 116.149C15.7183 115.136 16.8339 114.325 17.2396 114.325C17.7467 114.325 17.8481 115.237 17.5439 116.352C17.2396 117.466 17.341 118.378 17.6453 118.378C17.9495 118.378 18.9637 117.669 19.8765 116.757C21.2963 115.44 21.702 115.338 22.0063 116.554C22.2091 117.263 21.9049 118.074 21.1949 118.175C20.5864 118.277 20.0793 118.885 20.0793 119.391C20.0793 119.999 20.485 120.405 21.0935 120.405C21.6006 120.405 22.6148 119.391 23.2233 118.175C24.0346 116.554 24.0346 115.642 23.1219 114.832C22.5134 114.325 18.9637 113.818 15.2112 113.818C9.02471 113.818 8.4162 113.717 8.72046 111.792C8.9233 110.677 9.83606 109.258 10.7488 108.549C11.6616 107.84 12.6758 107.232 12.98 107.232C13.2843 107.232 14.5013 108.144 15.7183 109.258C17.0368 110.373 18.3552 111.386 18.7609 111.386C19.268 111.386 18.9637 110.88 18.3552 110.069C17.6453 109.36 17.341 108.448 17.7467 108.042C18.051 107.637 19.8765 107.232 21.8034 107.232C24.1361 107.232 25.1502 107.738 25.1502 108.752C25.1502 109.664 25.5559 110.272 26.1644 110.272C26.6715 110.272 26.9758 110.981 26.6715 111.792C26.3673 112.704 26.3673 113.312 26.6715 113.312C26.9758 113.312 28.2942 112.704 29.7141 111.792C31.1339 110.981 32.2495 110.778 32.2495 111.285C32.2495 111.893 31.5396 112.602 30.7283 112.805C29.9169 113.109 29.4098 114.021 29.7141 114.832C30.1197 116.048 30.7283 116.149 32.2495 115.338C33.3651 114.832 34.2779 113.616 34.2779 112.602C34.2779 111.589 33.7708 110.272 33.0609 109.562C32.0467 108.752 31.2354 108.65 29.7141 109.461C28.1928 110.272 27.4829 110.17 26.9758 109.157C26.5701 108.448 26.1644 107.434 26.1644 107.029C26.1644 106.624 29.207 106.421 39.8559 106.725L49.085 96.5922C54.0545 91.0191 59.5311 85.5473 61.1538 84.3313C62.8779 83.014 66.8332 81.3927 69.9772 80.4808C73.2226 79.5688 77.3807 78.1502 79.1049 77.1369C80.9304 76.1236 83.3644 75.1103 84.3786 74.8063C85.5956 74.401 87.3197 75.009 88.7396 76.3262ZM115.413 74.8063C116.528 74.8063 117.644 75.5156 117.948 76.3262C118.252 77.2382 117.745 79.0621 116.934 80.3794C115.92 82.0007 114.5 82.9127 112.877 82.9127C110.95 82.9127 110.443 83.318 110.95 84.7366C111.255 85.7499 111.66 87.8778 111.964 89.4991C112.37 92.539 112.37 92.539 111.255 90.0058C110.545 88.6885 109.328 85.8512 108.415 83.7233C107.299 81.0887 107.198 80.1768 108.009 80.4808C108.719 80.6834 109.328 80.4808 109.328 79.8728C109.328 79.3661 110.24 77.9475 111.356 76.8329C112.472 75.7183 114.297 74.8063 115.413 74.8063ZM126.569 75.009C126.873 75.009 127.786 75.313 128.698 75.7183C130.017 76.2249 130.118 76.9342 129.51 78.6568C129.003 79.8728 127.38 81.5954 125.757 82.406C123.628 83.622 122.613 83.622 121.194 82.71C119.875 81.7981 119.571 80.8861 120.179 79.5688C120.585 78.4542 122.106 77.0356 123.526 76.3262C124.946 75.5156 126.264 74.9076 126.569 75.009ZM147.867 74.8063C148.374 74.8063 149.591 75.5156 150.402 76.3262C151.72 77.6435 151.72 78.3528 150.605 81.1901C149.794 83.014 148.475 84.6353 147.562 84.7366C146.65 84.838 145.128 84.4326 144.317 83.7233C143.404 83.014 142.694 81.6967 142.796 80.6834C142.796 79.6701 143.708 77.9475 144.824 76.8329C145.94 75.7183 147.258 74.8063 147.867 74.8063ZM135.899 75.8196C137.218 75.8196 138.739 76.3262 139.449 77.1369C140.463 78.1502 140.362 79.8728 139.347 84.9393C138.637 88.5872 138.13 91.931 138.333 92.3363C138.536 92.7417 139.145 92.843 139.753 92.539C140.26 92.3363 140.767 91.5257 140.767 90.8164C140.666 90.1071 141.274 88.9925 141.984 88.3845C142.998 87.4725 143.201 87.7765 142.998 90.1071C142.796 93.0457 142.897 93.0457 147.867 93.0457C151.72 93.0457 152.937 93.451 152.937 94.5656C152.937 95.4776 152.633 96.1869 152.126 96.1869C151.72 96.1869 148.678 96.5922 145.331 97.2002C141.984 97.7068 137.319 99.1255 134.885 100.24C132.552 101.355 130.625 102.672 130.625 103.179C130.625 103.787 131.437 104.091 132.35 103.787C133.364 103.584 138.232 103.077 143.303 102.672C150.909 102.064 152.329 102.165 151.822 103.381C151.518 104.091 148.475 105.205 144.723 105.915C141.173 106.523 136.203 107.941 129.104 111.184L133.668 111.285C136.203 111.285 140.362 110.677 142.998 109.765C146.142 108.853 148.069 108.65 148.374 109.258C148.678 109.866 148.678 110.88 148.475 111.589C148.374 112.298 146.142 113.413 143.708 114.122C141.274 114.933 137.826 116.453 133.161 119.594L136.711 119.189C138.637 118.885 141.984 117.871 144.013 117.061C146.751 115.845 148.982 113.616 151.923 109.056C154.864 104.496 155.98 101.659 155.98 98.9228C155.98 96.3558 156.386 95.2074 157.197 95.4776C157.907 95.6802 158.718 96.8962 159.023 98.3148C159.327 99.7334 159.428 102.469 159.225 104.293C159.124 106.624 157.197 110.17 153.952 114.629C150.706 118.986 148.272 121.418 147.055 121.317C146.142 121.215 143.506 121.722 141.274 122.431C139.043 123.141 135.798 123.546 134.175 123.343C131.64 123.039 131.133 122.533 131.234 120.405C131.234 119.087 131.538 117.263 131.741 116.352C132.045 115.136 130.321 114.73 121.498 114.224C115.616 113.92 110.139 113.413 109.328 113.008C108.516 112.704 107.502 111.386 107.096 110.069C106.691 108.853 106.082 104.8 105.676 101.152C104.967 94.8696 105.068 94.5656 107.401 93.8563C108.719 93.451 111.356 93.147 116.427 93.0457L115.717 88.7898C115.21 85.5473 115.311 84.6353 116.224 85.2433C116.934 85.6486 117.644 87.5739 117.948 89.4991C118.252 91.8297 118.962 93.0457 119.976 93.0457C121.092 93.0457 121.295 92.4377 120.788 90.8164C120.281 89.1951 120.382 88.7898 121.295 89.2965C122.005 89.7018 122.512 90.7151 122.512 91.5257C122.512 92.4377 122.918 93.0457 123.526 93.0457C124.033 93.0457 124.337 92.1337 124.033 91.0191C123.729 89.9044 123.932 88.7898 124.54 88.4858C125.047 88.2832 125.555 89.1951 125.555 90.5124C125.555 91.931 125.96 93.0457 126.569 93.0457C127.076 93.0457 127.786 90.8164 128.09 87.9792C128.394 85.2433 129.104 82.6087 129.814 82.2034C130.727 81.5954 130.828 82.9127 130.321 87.4725C129.915 91.1204 130.017 93.147 130.524 92.539C131.031 92.0324 131.64 90.7151 131.741 89.6004C131.944 88.5872 132.755 87.4725 133.567 87.0672C134.682 86.6619 134.885 87.1685 134.378 89.8031C133.972 91.627 133.972 93.147 134.378 93.147C134.885 93.147 135.798 91.627 136.406 89.8031C137.116 87.9792 137.725 85.9526 137.725 85.2433C137.725 84.534 136.711 83.8247 135.392 83.7233C133.871 83.5207 133.059 82.71 132.857 80.8861C132.654 79.5688 132.755 77.8462 133.059 77.1369C133.364 76.4276 134.682 75.8196 135.899 75.8196ZM389.445 90.0058C389.851 90.0058 390.764 91.3231 391.372 92.843C391.879 94.3629 394.313 101.76 396.545 109.258C399.79 119.898 400.804 124.661 400.804 130.538C400.906 135.908 400.398 139.252 399.181 141.684C398.167 143.711 394.009 148.878 389.851 153.337C385.794 157.795 377.478 165.496 360.338 179.176L361.555 194.882C362.671 208.562 362.671 210.994 361.352 212.919C360.541 214.135 360.034 216.871 360.135 218.999C360.237 221.025 359.831 223.153 359.324 223.66C358.716 224.166 355.876 224.876 352.935 225.18C347.864 225.788 347.559 225.686 346.444 223.052C345.734 221.532 345.227 220.113 345.125 220.012C345.125 219.911 340.055 222.14 333.969 224.977C327.783 227.814 321.495 230.246 319.771 230.348C317.641 230.348 316.728 229.841 316.525 228.625C316.323 227.612 318.25 224.876 321.191 222.038C325.045 218.289 325.957 216.871 325.247 215.452C324.74 214.439 324.74 204.508 325.349 191.842C326.363 170.664 326.464 169.955 329.608 162.355C332.144 156.579 334.172 153.54 337.519 150.5C340.055 148.372 344.821 144.724 348.168 142.393C351.515 140.164 357.194 136.921 360.845 135.3C367.032 132.463 368.147 132.362 379.101 132.463C385.49 132.564 392.386 132.97 397.863 133.983L397.052 128.004C396.646 124.661 395.632 119.695 394.82 116.858C394.009 114.122 392.285 106.928 390.967 100.949C389.648 94.9709 388.938 90.0058 389.445 90.0058ZM242.389 100.747C242.997 101.051 243.403 102.165 243.301 103.28C243.2 104.496 242.49 105.205 241.172 105.205C240.056 105.205 239.042 104.699 238.94 103.888C238.839 103.179 239.346 102.064 240.056 101.456C240.766 100.848 241.881 100.544 242.389 100.747ZM228.798 101.355C229.711 101.557 230.624 102.469 230.725 103.483C230.928 104.699 230.354 105.273 229.001 105.205C227.581 105.205 226.973 104.597 227.074 103.179C227.074 101.76 227.683 101.152 228.798 101.355ZM228.393 114.629C229.001 114.933 229.61 115.845 229.711 116.757C229.914 117.669 229.306 118.783 228.494 119.189C227.581 119.594 226.364 119.391 225.655 118.682C224.742 117.77 224.742 117.162 225.857 115.946C226.669 115.034 227.784 114.426 228.393 114.629ZM242.084 115.338C243.504 115.338 244.214 116.048 244.214 117.365C244.214 118.716 243.639 119.324 242.49 119.189C241.476 119.087 240.563 118.175 240.36 117.162C240.056 115.946 240.563 115.338 242.084 115.338ZM202.328 123.951C202.531 124.559 201.72 129.119 200.503 134.084C199.387 139.151 198.17 147.764 197.866 153.337C197.359 162.862 197.46 163.774 199.691 166.915C201.01 168.84 203.241 171.171 204.458 171.982C206.486 173.4 206.791 173.4 206.182 172.083C205.777 171.272 206.689 168.131 208.312 164.99C209.833 161.95 212.166 157.897 213.586 155.87C215.006 153.945 218.758 149.689 221.801 146.446C224.945 143.204 228.697 139.961 230.218 139.151C231.841 138.34 233.058 138.137 233.058 138.644C233.058 139.252 230.218 143.001 226.669 147.054C223.119 151.108 218.859 156.174 217.135 158.403C215.411 160.633 212.572 164.888 210.847 167.827C209.123 170.766 208.008 173.4 208.413 173.704C208.92 174.008 210.442 174.211 211.963 174.211C213.586 174.211 217.642 173.198 221.091 172.083C224.64 170.968 235.391 166.104 245.025 161.241C254.559 156.377 262.774 152.729 263.281 153.134C263.686 153.54 263.078 154.857 261.962 155.971C260.847 157.187 257.398 159.721 248.778 164.99L247.967 172.894C247.561 177.251 246.547 183.432 245.735 186.776C244.823 190.12 242.794 195.794 241.172 199.239C238.839 204.002 236.811 206.636 232.754 209.575C229.914 211.804 225.046 214.54 222.105 215.655C218.657 217.073 214.498 217.681 209.935 217.681C206.182 217.681 201.517 217.276 199.59 216.769C197.663 216.263 193.505 214.945 190.462 213.831C187.42 212.615 184.58 211.095 184.174 210.386C183.87 209.676 183.769 207.548 184.073 205.522C184.58 202.178 184.479 201.975 180.422 200.253C178.191 199.239 175.757 198.429 175.25 198.429C174.641 198.429 173.931 201.57 173.627 205.319C173.323 209.068 172.41 215.351 171.598 219.201C170.889 223.153 169.874 226.7 169.469 227.206C168.962 227.612 167.542 227.814 166.223 227.713C164.398 227.409 163.485 226.497 162.876 224.268C162.369 222.646 162.268 213.02 162.572 202.988C162.978 192.248 163.789 182.621 164.702 179.48C165.412 176.541 166.73 174.008 167.339 173.805C168.049 173.603 172.106 175.123 176.264 177.251C183.87 181.101 183.87 181.101 185.898 179.075C187.927 177.149 187.927 177.149 193.505 179.885C196.953 181.608 201.314 182.723 205.168 183.027C210.543 183.432 211.659 183.128 218.352 178.163H213.281C210.34 178.163 206.486 177.352 204.154 176.237C201.923 175.123 199.083 172.995 197.967 171.374C196.75 169.854 195.229 166.51 194.519 163.977C193.809 161.443 193.606 157.491 193.911 154.857C194.316 152.425 195.33 146.649 196.243 142.191C197.055 137.732 198.677 131.652 199.894 128.511C201.01 125.471 202.125 123.445 202.328 123.951ZM231.233 129.626C231.537 129.626 231.74 130.335 231.638 131.348C231.537 132.362 230.725 133.274 229.711 133.375C228.798 133.476 227.886 132.97 227.784 132.159C227.683 131.45 228.19 130.538 229.001 130.234C229.813 129.93 230.827 129.727 231.233 129.626ZM400.601 143.001C400.906 143.103 404.759 147.764 409.019 153.337C413.279 158.91 419.567 168.739 422.913 175.123C426.362 181.608 430.925 189.714 433.055 193.159C436.402 198.631 436.706 199.645 435.489 200.962C434.678 201.874 433.562 202.482 432.954 202.482C432.244 202.482 432.041 204.306 432.345 207.346C432.65 210.284 432.345 213.121 431.534 214.641C430.317 217.073 429.81 217.175 424.232 216.871C420.378 216.668 417.538 215.959 416.321 214.844C414.699 213.324 414.191 213.324 408.208 215.857C404.76 217.276 397.153 219.911 391.271 221.633C381.94 224.369 380.419 224.572 379.101 223.254C377.782 222.038 377.782 221.532 379.811 219.505C381.028 218.289 385.186 215.351 389.141 213.121C393.096 210.892 396.139 208.663 395.835 208.055C395.632 207.548 393.603 202.482 391.271 196.909C389.04 191.336 385.084 182.52 377.884 167.523L385.693 159.923C389.952 155.769 394.922 150.196 396.646 147.561C398.472 144.926 400.196 142.9 400.601 143.001ZM44.4198 216.871C46.9552 216.769 51.7219 217.377 55.0687 218.289C58.4155 219.201 62.168 220.519 63.385 221.329C64.7034 222.14 65.6162 223.558 65.4134 224.572C65.312 225.788 63.4864 226.801 60.1396 227.713C57.2999 228.422 48.1722 229.436 39.8559 229.942C31.4382 230.449 20.6878 231.158 15.9212 231.665C8.72046 232.273 6.89493 232.171 5.47507 230.854C4.5623 230.044 3.75095 228.726 3.85237 227.814C3.85237 226.497 3.95379 226.497 4.86656 227.814C5.6779 229.233 7.40202 229.233 19.7751 227.612C27.4829 226.7 38.1318 225.585 43.4056 225.281C48.6793 224.977 53.7502 224.268 54.5616 223.761C55.5758 223.153 52.7361 222.849 46.4481 222.748C41.1744 222.748 36.1034 222.342 35.2921 221.836C34.2779 221.228 34.0751 220.417 34.6836 219.404C35.0893 218.593 36.5091 217.681 37.7261 217.479C38.8417 217.175 41.8843 216.972 44.4198 216.871Z" fill="#12223E"/>
</svg>